<svg width="49" height="48" viewBox="0 0 49 48" fill="none" xmlns="http://www.w3.org/2000/svg">
<path d="M26.0869 0C27.7693 0 29.1328 1.36353 29.1328 3.0459C29.133 4.43053 30.0835 5.62362 31.377 6.13477C31.5805 6.21599 31.7827 6.30053 31.9834 6.38867C33.2602 6.94306 34.7729 6.775 35.7568 5.79102C36.3282 5.22108 37.1021 4.90039 37.9092 4.90039C38.7162 4.9004 39.4902 5.22108 40.0615 5.79102L42.5439 8.27246C43.114 8.84385 43.4336 9.61869 43.4336 10.4258C43.4335 11.2327 43.1138 12.0068 42.5439 12.5781C41.5624 13.5621 41.3944 15.0762 41.9463 16.3506C42.0337 16.5515 42.1177 16.7542 42.1982 16.958C42.7094 18.2516 43.8999 19.2021 45.2871 19.2021C46.9693 19.2024 48.332 20.5658 48.332 22.248V25.7539C48.332 27.4361 46.9693 28.7995 45.2871 28.7998C43.8999 28.7998 42.709 29.7504 42.2002 31.0439C42.1187 31.2485 42.0342 31.4507 41.9463 31.6504C41.3919 32.9272 41.56 34.4398 42.5439 35.4238C43.1138 35.9952 43.4336 36.7692 43.4336 37.5762C43.4336 38.3831 43.1138 39.1572 42.5439 39.7285L40.0615 42.2109C39.4901 42.7814 38.7157 43.1015 37.9082 43.1016C37.1005 43.1016 36.3254 42.7817 35.7539 42.2109C34.7723 41.2294 33.2578 41.0584 31.9834 41.6152C31.7836 41.7016 31.5816 41.7853 31.377 41.8652C30.0834 42.3764 29.1328 43.5669 29.1328 44.9541C29.1326 46.6363 27.7691 47.999 26.0869 47.999H22.5781C20.896 47.999 19.5325 46.6362 19.5322 44.9541C19.5322 43.567 18.5825 42.376 17.2891 41.8672C17.0844 41.7856 16.8816 41.7012 16.6816 41.6133C15.4049 41.0589 13.8932 41.227 12.9092 42.2109C12.3378 42.781 11.563 43.1006 10.7559 43.1006C9.94893 43.1005 9.17484 42.7808 8.60352 42.2109L6.12207 39.7285C5.55199 39.1571 5.23145 38.3833 5.23145 37.5762C5.23145 36.769 5.552 35.9952 6.12207 35.4238C7.10365 34.4398 7.27119 32.9248 6.7168 31.6504C6.63209 31.4506 6.54795 31.2485 6.46484 31.0439C5.9561 29.7505 4.76593 28.8 3.37891 28.7998C1.69654 28.7998 0.333008 27.4363 0.333008 25.7539V22.2451C0.33306 20.5628 1.69657 19.1992 3.37891 19.1992C4.76582 19.1991 5.95602 18.2494 6.46484 16.9561C6.54535 16.7523 6.62936 16.5495 6.7168 16.3486C7.27352 15.072 7.10572 13.5602 6.12207 12.5762C5.55197 12.0048 5.23145 11.23 5.23145 10.4229C5.23149 9.61575 5.55201 8.84187 6.12207 8.27051L8.60352 5.78906C9.17488 5.21901 9.94876 4.89848 10.7559 4.89844C11.563 4.89844 12.3378 5.21897 12.9092 5.78906C13.8932 6.7703 15.4074 6.93861 16.6816 6.38672C16.8816 6.30032 17.0843 6.21503 17.2891 6.13184C18.5824 5.62302 19.5321 4.43281 19.5322 3.0459C19.5322 1.36353 20.8963 0 22.5811 0H26.0869ZM24.3311 14.4004C21.7853 14.4005 19.3441 15.4118 17.5439 17.2119C15.7437 19.0122 14.7314 21.454 14.7314 24C14.7315 26.5459 15.7437 28.9879 17.5439 30.7881C19.3441 32.588 21.7854 33.5995 24.3311 33.5996C26.8769 33.5996 29.3189 32.5882 31.1191 30.7881C32.9194 28.9879 33.9306 26.5459 33.9307 24C33.9307 21.454 32.9194 19.0122 31.1191 17.2119C29.3189 15.4117 26.877 14.4004 24.3311 14.4004Z" fill="#072FC4"/>
<circle cx="24.3319" cy="24" r="13.9998" fill="#516DD6"/>
<g filter="url(#filter0_i_513_590)">
<path d="M34.3337 23.9999C34.3337 26.652 33.2802 29.1955 31.4049 31.0709C29.5295 32.9462 26.986 33.9998 24.3339 33.9998C21.6817 33.9998 19.1382 32.9462 17.2629 31.0709C15.3875 29.1955 14.334 26.652 14.334 23.9999C14.334 21.3477 15.3875 18.8042 17.2629 16.9289C19.1382 15.0536 21.6817 14 24.3339 14C26.986 14 29.5295 15.0536 31.4049 16.9289C33.2802 18.8042 34.3337 21.3477 34.3337 23.9999Z" fill="white"/>
</g>
<defs>
<filter id="filter0_i_513_590" x="14.334" y="14" width="21.5" height="21.4997" filterUnits="userSpaceOnUse" color-interpolation-filters="sRGB">
<feFlood flood-opacity="0" result="BackgroundImageFix"/>
<feBlend mode="normal" in="SourceGraphic" in2="BackgroundImageFix" result="shape"/>
<feColorMatrix in="SourceAlpha" type="matrix" values="0 0 0 0 0 0 0 0 0 0 0 0 0 0 0 0 0 0 127 0" result="hardAlpha"/>
<feOffset dx="1.49998" dy="1.49998"/>
<feGaussianBlur stdDeviation="0.749991"/>
<feComposite in2="hardAlpha" operator="arithmetic" k2="-1" k3="1"/>
<feColorMatrix type="matrix" values="0 0 0 0 0 0 0 0 0 0 0 0 0 0 0 0 0 0 0.15 0"/>
<feBlend mode="normal" in2="shape" result="effect1_innerShadow_513_590"/>
</filter>
</defs>
</svg>
