<svg width="56" height="56" viewBox="0 0 56 56" fill="none" xmlns="http://www.w3.org/2000/svg">
<g clip-path="url(#clip0_2004_1331)">
<circle cx="32.5" cy="31.6035" r="22" fill="#072FC4"/>
<circle cx="32.5" cy="31.6035" r="22" stroke="#072FC4" stroke-width="4"/>
<circle cx="32.5" cy="31.6035" r="22" stroke="white" stroke-opacity="0.3" stroke-width="4"/>
<g filter="url(#filter0_i_2004_1331)">
<path d="M40.4885 35.1093C40.4885 35.3854 40.2647 35.6093 39.9885 35.6093H30.0002C29.7241 35.6093 29.5002 35.8331 29.5002 36.1093V41.1151C29.5002 41.3913 29.2764 41.6151 29.0002 41.6151H26.0002C25.7241 41.6151 25.5002 41.3913 25.5002 41.1151V24.1034C25.5002 23.8273 25.7241 23.6034 26.0002 23.6034H39.9885C40.2647 23.6034 40.4885 23.8273 40.4885 24.1034V35.1093ZM29.5002 31.1093C29.5002 31.3854 29.7241 31.6093 30.0002 31.6093H35.9885C36.2647 31.6093 36.4885 31.3854 36.4885 31.1093V28.1034C36.4885 27.8273 36.2647 27.6034 35.9885 27.6034H30.0002C29.7241 27.6034 29.5002 27.8273 29.5002 28.1034V31.1093Z" fill="white"/>
</g>
</g>
<defs>
<filter id="filter0_i_2004_1331" x="25.5002" y="23.6034" width="16.4883" height="19.5117" filterUnits="userSpaceOnUse" color-interpolation-filters="sRGB">
<feFlood flood-opacity="0" result="BackgroundImageFix"/>
<feBlend mode="normal" in="SourceGraphic" in2="BackgroundImageFix" result="shape"/>
<feColorMatrix in="SourceAlpha" type="matrix" values="0 0 0 0 0 0 0 0 0 0 0 0 0 0 0 0 0 0 127 0" result="hardAlpha"/>
<feOffset dx="1.5" dy="1.5"/>
<feGaussianBlur stdDeviation="0.75"/>
<feComposite in2="hardAlpha" operator="arithmetic" k2="-1" k3="1"/>
<feColorMatrix type="matrix" values="0 0 0 0 0 0 0 0 0 0 0 0 0 0 0 0 0 0 0.15 0"/>
<feBlend mode="normal" in2="shape" result="effect1_innerShadow_2004_1331"/>
</filter>
<clipPath id="clip0_2004_1331">
<rect width="56" height="56" fill="white"/>
</clipPath>
</defs>
</svg>
