<svg width="49" height="49" viewBox="0 0 49 49" fill="none" xmlns="http://www.w3.org/2000/svg">
<circle cx="24.1665" cy="24.6035" r="22" fill="#072FC4"/>
<circle cx="24.1665" cy="24.6035" r="22" stroke="#072FC4" stroke-width="4"/>
<circle cx="24.1665" cy="24.6035" r="22" stroke="white" stroke-opacity="0.3" stroke-width="4"/>
<g filter="url(#filter0_i_339_1298)">
<path d="M32.1548 28.1094C32.1548 28.3855 31.9309 28.6094 31.6548 28.6094H21.6665C21.3904 28.6094 21.1665 28.8332 21.1665 29.1094V34.1152C21.1665 34.3914 20.9426 34.6152 20.6665 34.6152H17.6665C17.3904 34.6152 17.1665 34.3914 17.1665 34.1152V17.1035C17.1665 16.8274 17.3904 16.6035 17.6665 16.6035H31.6548C31.9309 16.6035 32.1548 16.8274 32.1548 17.1035V28.1094ZM21.1665 24.1094C21.1665 24.3855 21.3904 24.6094 21.6665 24.6094H27.6548C27.9309 24.6094 28.1548 24.3855 28.1548 24.1094V21.1035C28.1548 20.8274 27.9309 20.6035 27.6548 20.6035H21.6665C21.3904 20.6035 21.1665 20.8274 21.1665 21.1035V24.1094Z" fill="white"/>
</g>
<defs>
<filter id="filter0_i_339_1298" x="17.1665" y="16.6035" width="16.4883" height="19.5117" filterUnits="userSpaceOnUse" color-interpolation-filters="sRGB">
<feFlood flood-opacity="0" result="BackgroundImageFix"/>
<feBlend mode="normal" in="SourceGraphic" in2="BackgroundImageFix" result="shape"/>
<feColorMatrix in="SourceAlpha" type="matrix" values="0 0 0 0 0 0 0 0 0 0 0 0 0 0 0 0 0 0 127 0" result="hardAlpha"/>
<feOffset dx="1.5" dy="1.5"/>
<feGaussianBlur stdDeviation="0.75"/>
<feComposite in2="hardAlpha" operator="arithmetic" k2="-1" k3="1"/>
<feColorMatrix type="matrix" values="0 0 0 0 0 0 0 0 0 0 0 0 0 0 0 0 0 0 0.15 0"/>
<feBlend mode="normal" in2="shape" result="effect1_innerShadow_339_1298"/>
</filter>
</defs>
</svg>
