<svg width="49" height="57" viewBox="0 0 49 57" fill="none" xmlns="http://www.w3.org/2000/svg">
<path d="M9.18861 48.7394C9.28136 48.6521 9.40393 48.6035 9.5313 48.6035H40.1347C40.2621 48.6035 40.3847 48.6521 40.4774 48.7394L47.9149 55.7394C48.2446 56.0497 48.025 56.6035 47.5722 56.6035H2.09379C1.641 56.6035 1.42139 56.0497 1.75111 55.7394L9.18861 48.7394Z" fill="#072FC4"/>
<path d="M9.18861 48.7394C9.28136 48.6521 9.40393 48.6035 9.5313 48.6035H40.1347C40.2621 48.6035 40.3847 48.6521 40.4774 48.7394L47.9149 55.7394C48.2446 56.0497 48.025 56.6035 47.5722 56.6035H2.09379C1.641 56.6035 1.42139 56.0497 1.75111 55.7394L9.18861 48.7394Z" fill="white" fill-opacity="0.3"/>
<path d="M7.83301 1.59219C7.83301 1.04616 8.21357 0.603516 8.68301 0.603516H40.983C41.4525 0.603516 41.833 1.04616 41.833 1.59219V31.7934C41.833 32.0553 41.7437 32.3065 41.5846 32.4919L25.4346 51.3133C25.1026 51.7003 24.5635 51.7003 24.2314 51.3133L8.08138 32.4919C7.92233 32.3065 7.83301 32.0553 7.83301 31.7934V1.59219Z" fill="#072FC4"/>
<g filter="url(#filter0_i_339_1290)">
<path d="M17.2119 9.24526C17.2119 9.00504 17.4067 8.8103 17.6469 8.8103H31.7724C32.0126 8.8103 32.2074 9.00504 32.2074 9.24526V23.3708C32.2074 23.611 32.0126 23.8058 31.7724 23.8058H24.7097H17.6469C17.4067 23.8058 17.2119 23.611 17.2119 23.3708V9.24526Z" fill="white"/>
</g>
<defs>
<filter id="filter0_i_339_1290" x="17.2119" y="8.8103" width="16.8467" height="16.8465" filterUnits="userSpaceOnUse" color-interpolation-filters="sRGB">
<feFlood flood-opacity="0" result="BackgroundImageFix"/>
<feBlend mode="normal" in="SourceGraphic" in2="BackgroundImageFix" result="shape"/>
<feColorMatrix in="SourceAlpha" type="matrix" values="0 0 0 0 0 0 0 0 0 0 0 0 0 0 0 0 0 0 127 0" result="hardAlpha"/>
<feOffset dx="1.85111" dy="1.85111"/>
<feGaussianBlur stdDeviation="0.925556"/>
<feComposite in2="hardAlpha" operator="arithmetic" k2="-1" k3="1"/>
<feColorMatrix type="matrix" values="0 0 0 0 0 0 0 0 0 0 0 0 0 0 0 0 0 0 0.2 0"/>
<feBlend mode="normal" in2="shape" result="effect1_innerShadow_339_1290"/>
</filter>
</defs>
</svg>
