<svg width="49" height="49" viewBox="0 0 49 49" fill="none" xmlns="http://www.w3.org/2000/svg">
<circle cx="24.4995" cy="24.4036" r="22" fill="#072FC4"/>
<circle cx="24.4995" cy="24.4036" r="22" stroke="#072FC4" stroke-width="4"/>
<circle cx="24.4995" cy="24.4036" r="22" stroke="white" stroke-opacity="0.3" stroke-width="4"/>
<mask id="path-2-inside-1_339_1307" fill="white">
<path d="M25.0557 11.9041C25.3318 11.9041 25.5557 12.1279 25.5557 12.4041V25.9229C25.5557 26.0665 25.6209 26.2024 25.7331 26.2922L30.4668 30.0828C30.6823 30.2553 30.7174 30.5703 30.5449 30.7859L28.6699 33.1277C28.4974 33.3432 28.1823 33.3782 27.9668 33.2058L22.0497 28.4669C21.9901 28.4192 21.918 28.3905 21.8486 28.3589C21.6758 28.2802 21.5557 28.1063 21.5557 27.9041V12.4041C21.5557 12.1279 21.7795 11.9041 22.0557 11.9041H25.0557Z"/>
</mask>
<g filter="url(#filter0_iiii_339_1307)">
<path d="M25.0557 11.9041C25.3318 11.9041 25.5557 12.1279 25.5557 12.4041V25.9229C25.5557 26.0665 25.6209 26.2024 25.7331 26.2922L30.4668 30.0828C30.6823 30.2553 30.7174 30.5703 30.5449 30.7859L28.6699 33.1277C28.4974 33.3432 28.1823 33.3782 27.9668 33.2058L22.0497 28.4669C21.9901 28.4192 21.918 28.3905 21.8486 28.3589C21.6758 28.2802 21.5557 28.1063 21.5557 27.9041V12.4041C21.5557 12.1279 21.7795 11.9041 22.0557 11.9041H25.0557Z" fill="white"/>
</g>
<path d="M25.5557 12.4041H25.7922H25.5557ZM30.4668 30.0828L30.6147 29.8981L30.6147 29.8981L30.4668 30.0828ZM30.5449 30.7859L30.7296 30.9338L30.7296 30.9337L30.5449 30.7859ZM28.6699 33.1277L28.8546 33.2756L28.8546 33.2756L28.6699 33.1277ZM27.9668 33.2058L27.8189 33.3905L27.819 33.3906L27.9668 33.2058ZM21.5557 27.9041H21.3191H21.5557ZM22.0497 28.4669L21.9018 28.6516L22.0497 28.4669ZM21.8486 28.3589L21.7505 28.5742L21.8486 28.3589ZM25.7331 26.2922L25.881 26.1075L25.7331 26.2922ZM25.0557 11.9041V12.1406C25.2011 12.1406 25.3191 12.2586 25.3191 12.4041H25.5557H25.7922C25.7922 11.9972 25.4625 11.6675 25.0557 11.6675V11.9041ZM25.5557 12.4041H25.3191V25.9229H25.5557H25.7922V12.4041H25.5557ZM25.7331 26.2922L25.5852 26.4769L30.3189 30.2674L30.4668 30.0828L30.6147 29.8981L25.881 26.1075L25.7331 26.2922ZM30.4668 30.0828L30.3189 30.2674C30.4326 30.3585 30.451 30.5247 30.3602 30.6381L30.5449 30.7859L30.7296 30.9337C30.9839 30.616 30.932 30.1522 30.6147 29.8981L30.4668 30.0828ZM30.5449 30.7859L30.3602 30.638L28.4852 32.9798L28.6699 33.1277L28.8546 33.2756L30.7296 30.9338L30.5449 30.7859ZM28.6699 33.1277L28.4853 32.9798C28.3942 33.0934 28.228 33.1118 28.1146 33.0211L27.9668 33.2058L27.819 33.3906C28.1366 33.6447 28.6005 33.5929 28.8546 33.2756L28.6699 33.1277ZM27.9668 33.2058L28.1147 33.0211L22.1976 28.2823L22.0497 28.4669L21.9018 28.6516L27.8189 33.3905L27.9668 33.2058ZM21.8486 28.3589L21.9466 28.1435C21.855 28.1018 21.7922 28.0101 21.7922 27.9041H21.5557H21.3191C21.3191 28.2025 21.4966 28.4586 21.7505 28.5742L21.8486 28.3589ZM21.5557 27.9041H21.7922V12.4041H21.5557H21.3191V27.9041H21.5557ZM21.5557 12.4041H21.7922C21.7922 12.2586 21.9102 12.1406 22.0557 12.1406V11.9041V11.6675C21.6489 11.6675 21.3191 11.9972 21.3191 12.4041H21.5557ZM22.0557 11.9041V12.1406H25.0557V11.9041V11.6675H22.0557V11.9041ZM22.0497 28.4669L22.1976 28.2823C22.1087 28.2111 21.9999 28.1678 21.9466 28.1435L21.8486 28.3589L21.7505 28.5742C21.8361 28.6132 21.8715 28.6274 21.9018 28.6516L22.0497 28.4669ZM25.5557 25.9229H25.3191C25.3191 26.1384 25.417 26.3422 25.5852 26.4769L25.7331 26.2922L25.881 26.1075C25.8249 26.0626 25.7922 25.9947 25.7922 25.9229H25.5557Z" fill="#072FC4" mask="url(#path-2-inside-1_339_1307)"/>
<path d="M25.5557 12.4041H25.7922H25.5557ZM30.4668 30.0828L30.6147 29.8981L30.6147 29.8981L30.4668 30.0828ZM30.5449 30.7859L30.7296 30.9338L30.7296 30.9337L30.5449 30.7859ZM28.6699 33.1277L28.8546 33.2756L28.8546 33.2756L28.6699 33.1277ZM27.9668 33.2058L27.8189 33.3905L27.819 33.3906L27.9668 33.2058ZM21.5557 27.9041H21.3191H21.5557ZM22.0497 28.4669L21.9018 28.6516L22.0497 28.4669ZM21.8486 28.3589L21.7505 28.5742L21.8486 28.3589ZM25.7331 26.2922L25.881 26.1075L25.7331 26.2922ZM25.0557 11.9041V12.1406C25.2011 12.1406 25.3191 12.2586 25.3191 12.4041H25.5557H25.7922C25.7922 11.9972 25.4625 11.6675 25.0557 11.6675V11.9041ZM25.5557 12.4041H25.3191V25.9229H25.5557H25.7922V12.4041H25.5557ZM25.7331 26.2922L25.5852 26.4769L30.3189 30.2674L30.4668 30.0828L30.6147 29.8981L25.881 26.1075L25.7331 26.2922ZM30.4668 30.0828L30.3189 30.2674C30.4326 30.3585 30.451 30.5247 30.3602 30.6381L30.5449 30.7859L30.7296 30.9337C30.9839 30.616 30.932 30.1522 30.6147 29.8981L30.4668 30.0828ZM30.5449 30.7859L30.3602 30.638L28.4852 32.9798L28.6699 33.1277L28.8546 33.2756L30.7296 30.9338L30.5449 30.7859ZM28.6699 33.1277L28.4853 32.9798C28.3942 33.0934 28.228 33.1118 28.1146 33.0211L27.9668 33.2058L27.819 33.3906C28.1366 33.6447 28.6005 33.5929 28.8546 33.2756L28.6699 33.1277ZM27.9668 33.2058L28.1147 33.0211L22.1976 28.2823L22.0497 28.4669L21.9018 28.6516L27.8189 33.3905L27.9668 33.2058ZM21.8486 28.3589L21.9466 28.1435C21.855 28.1018 21.7922 28.0101 21.7922 27.9041H21.5557H21.3191C21.3191 28.2025 21.4966 28.4586 21.7505 28.5742L21.8486 28.3589ZM21.5557 27.9041H21.7922V12.4041H21.5557H21.3191V27.9041H21.5557ZM21.5557 12.4041H21.7922C21.7922 12.2586 21.9102 12.1406 22.0557 12.1406V11.9041V11.6675C21.6489 11.6675 21.3191 11.9972 21.3191 12.4041H21.5557ZM22.0557 11.9041V12.1406H25.0557V11.9041V11.6675H22.0557V11.9041ZM22.0497 28.4669L22.1976 28.2823C22.1087 28.2111 21.9999 28.1678 21.9466 28.1435L21.8486 28.3589L21.7505 28.5742C21.8361 28.6132 21.8715 28.6274 21.9018 28.6516L22.0497 28.4669ZM25.5557 25.9229H25.3191C25.3191 26.1384 25.417 26.3422 25.5852 26.4769L25.7331 26.2922L25.881 26.1075C25.8249 26.0626 25.7922 25.9947 25.7922 25.9229H25.5557Z" fill="white" fill-opacity="0.3" mask="url(#path-2-inside-1_339_1307)"/>
<defs>
<filter id="filter0_iiii_339_1307" x="21.5557" y="11.9041" width="11.5779" height="23.8904" filterUnits="userSpaceOnUse" color-interpolation-filters="sRGB">
<feFlood flood-opacity="0" result="BackgroundImageFix"/>
<feBlend mode="normal" in="SourceGraphic" in2="BackgroundImageFix" result="shape"/>
<feColorMatrix in="SourceAlpha" type="matrix" values="0 0 0 0 0 0 0 0 0 0 0 0 0 0 0 0 0 0 127 0" result="hardAlpha"/>
<feOffset dx="0.275476" dy="0.275476"/>
<feGaussianBlur stdDeviation="0.413214"/>
<feComposite in2="hardAlpha" operator="arithmetic" k2="-1" k3="1"/>
<feColorMatrix type="matrix" values="0 0 0 0 0 0 0 0 0 0 0 0 0 0 0 0 0 0 0.17 0"/>
<feBlend mode="normal" in2="shape" result="effect1_innerShadow_339_1307"/>
<feColorMatrix in="SourceAlpha" type="matrix" values="0 0 0 0 0 0 0 0 0 0 0 0 0 0 0 0 0 0 127 0" result="hardAlpha"/>
<feOffset dx="1.1019" dy="1.1019"/>
<feGaussianBlur stdDeviation="0.826428"/>
<feComposite in2="hardAlpha" operator="arithmetic" k2="-1" k3="1"/>
<feColorMatrix type="matrix" values="0 0 0 0 0 0 0 0 0 0 0 0 0 0 0 0 0 0 0.15 0"/>
<feBlend mode="normal" in2="effect1_innerShadow_339_1307" result="effect2_innerShadow_339_1307"/>
<feColorMatrix in="SourceAlpha" type="matrix" values="0 0 0 0 0 0 0 0 0 0 0 0 0 0 0 0 0 0 127 0" result="hardAlpha"/>
<feOffset dx="2.47928" dy="2.75476"/>
<feGaussianBlur stdDeviation="1.1019"/>
<feComposite in2="hardAlpha" operator="arithmetic" k2="-1" k3="1"/>
<feColorMatrix type="matrix" values="0 0 0 0 0 0 0 0 0 0 0 0 0 0 0 0 0 0 0.09 0"/>
<feBlend mode="normal" in2="effect2_innerShadow_339_1307" result="effect3_innerShadow_339_1307"/>
<feColorMatrix in="SourceAlpha" type="matrix" values="0 0 0 0 0 0 0 0 0 0 0 0 0 0 0 0 0 0 127 0" result="hardAlpha"/>
<feOffset dx="4.13214" dy="4.95857"/>
<feGaussianBlur stdDeviation="1.23964"/>
<feComposite in2="hardAlpha" operator="arithmetic" k2="-1" k3="1"/>
<feColorMatrix type="matrix" values="0 0 0 0 0 0 0 0 0 0 0 0 0 0 0 0 0 0 0.03 0"/>
<feBlend mode="normal" in2="effect3_innerShadow_339_1307" result="effect4_innerShadow_339_1307"/>
</filter>
</defs>
</svg>
