<svg width="43" height="36" viewBox="0 0 43 36" fill="none" xmlns="http://www.w3.org/2000/svg">
<path d="M9.52082 0.296936L0.134151 35.4969C0.0664337 35.7509 0.257833 36 0.520645 36H32.2952C32.4752 36 32.6331 35.8797 32.6808 35.7061L34.6608 28.5061C34.7309 28.2514 34.5393 28 34.2752 28H10.6558C10.3924 28 10.2009 27.7499 10.2696 27.4957L17.5635 0.504349C17.6322 0.250105 17.4407 0 17.1773 0H9.90731C9.72609 0 9.56751 0.121834 9.52082 0.296936Z" fill="black"/>
<path d="M20.1362 19.4957L25.3201 0.295734C25.3673 0.121225 25.5255 0 25.7063 0H41.6469C41.9102 0 42.1017 0.250042 42.0331 0.504266L36.8491 19.7043C36.802 19.8788 36.6437 20 36.4629 20H20.5223C20.259 20 20.0675 19.75 20.1362 19.4957Z" fill="#072FC4"/>
</svg>
