<svg width="1721" height="758" viewBox="0 0 1721 758" fill="none" xmlns="http://www.w3.org/2000/svg">
<mask id="mask0_2024_632" style="mask-type:alpha" maskUnits="userSpaceOnUse" x="870" y="0" width="851" height="758">
<path d="M1720.5 5.22748V752.672C1720.5 755.311 1718.36 757.45 1715.72 757.45H874.805C871.639 757.45 869.349 754.427 870.205 751.38L1080.17 3.93536C1080.75 1.87408 1082.63 0.449707 1084.77 0.449707H1715.72C1718.36 0.449707 1720.5 2.58881 1720.5 5.22748Z" fill="#D9D9D9"/>
</mask>
<g mask="url(#mask0_2024_632)">
<rect x="868.501" y="-244.549" width="852.184" height="1037.77" fill="black"/>
</g>
<mask id="mask1_2024_632" style="mask-type:alpha" maskUnits="userSpaceOnUse" x="0" y="0" width="1042" height="758">
<path d="M0.500488 752.672V5.22748C0.500488 2.58879 2.63963 0.449707 5.27832 0.449707H1037.2C1040.36 0.449707 1042.65 3.47212 1041.8 6.51957L831.834 753.964C831.255 756.025 829.375 757.45 827.234 757.45H5.27826C2.63957 757.45 0.500488 755.311 0.500488 752.672Z" fill="#D9D9D9"/>
</mask>
<g mask="url(#mask1_2024_632)">
<rect width="1275" height="957" transform="matrix(-1 0 0 1 1275.5 -199.396)" fill="black"/>
</g>
</svg>
