<svg width="61" height="45" viewBox="0 0 61 45" fill="none" xmlns="http://www.w3.org/2000/svg">
<rect x="2.65217" y="2.55696" width="53.6878" height="37.6824" rx="0.932685" fill="#072FC4"/>
<rect x="2.65217" y="2.55696" width="53.6878" height="37.6824" rx="0.932685" stroke="#072FC4" stroke-width="0.169579"/>
<rect x="2.65217" y="2.55696" width="53.6878" height="37.6824" rx="0.932685" stroke="white" stroke-opacity="0.1" stroke-width="0.169579"/>
<g filter="url(#filter0_d_353_37684)">
<path d="M58.5 41.3608C58.5 41.9328 58.0363 42.3965 57.4643 42.3965H1.53571C0.963705 42.3965 0.5 41.9328 0.5 41.3608V1.43708C0.5 0.865072 0.963705 0.401367 1.53571 0.401367H57.4643C58.0363 0.401367 58.5 0.865072 58.5 1.43708V41.3608ZM4.64258 37.2172C4.64258 37.7892 5.10628 38.2529 5.67829 38.2529H53.3217C53.8937 38.2529 54.3574 37.7892 54.3574 37.2172V5.57966C54.3574 5.00765 53.8937 4.54395 53.3217 4.54395H5.67829C5.10628 4.54395 4.64258 5.00765 4.64258 5.57966V37.2172Z" fill="#072FC4"/>
<path d="M58.5 41.3608C58.5 41.9328 58.0363 42.3965 57.4643 42.3965H1.53571C0.963705 42.3965 0.5 41.9328 0.5 41.3608V1.43708C0.5 0.865072 0.963705 0.401367 1.53571 0.401367H57.4643C58.0363 0.401367 58.5 0.865072 58.5 1.43708V41.3608ZM4.64258 37.2172C4.64258 37.7892 5.10628 38.2529 5.67829 38.2529H53.3217C53.8937 38.2529 54.3574 37.7892 54.3574 37.2172V5.57966C54.3574 5.00765 53.8937 4.54395 53.3217 4.54395H5.67829C5.10628 4.54395 4.64258 5.00765 4.64258 5.57966V37.2172Z" fill="white" fill-opacity="0.3"/>
</g>
<g filter="url(#filter1_i_353_37684)">
<rect x="14.8994" y="9.30713" width="24.1383" height="4.0427" rx="0.517857" transform="rotate(90 14.8994 9.30713)" fill="white"/>
</g>
<g filter="url(#filter2_i_353_37684)">
<rect x="23.085" y="9.30713" width="24.1383" height="4.0427" rx="0.517857" transform="rotate(90 23.085 9.30713)" fill="white"/>
</g>
<g filter="url(#filter3_i_353_37684)">
<rect x="31.2705" y="9.30713" width="24.1383" height="4.0427" rx="0.517857" transform="rotate(90 31.2705 9.30713)" fill="white"/>
</g>
<g filter="url(#filter4_i_353_37684)">
<rect x="39.4561" y="9.30713" width="24.1383" height="4.0427" rx="0.517857" transform="rotate(90 39.4561 9.30713)" fill="white"/>
</g>
<g filter="url(#filter5_i_353_37684)">
<rect x="47.6416" y="9.30713" width="24.1383" height="4.0427" rx="0.517857" transform="rotate(90 47.6416 9.30713)" fill="white"/>
</g>
<defs>
<filter id="filter0_d_353_37684" x="0.5" y="0.401367" width="60.0349" height="44.0301" filterUnits="userSpaceOnUse" color-interpolation-filters="sRGB">
<feFlood flood-opacity="0" result="BackgroundImageFix"/>
<feColorMatrix in="SourceAlpha" type="matrix" values="0 0 0 0 0 0 0 0 0 0 0 0 0 0 0 0 0 0 127 0" result="hardAlpha"/>
<feOffset dx="1.01747" dy="1.01747"/>
<feGaussianBlur stdDeviation="0.508737"/>
<feComposite in2="hardAlpha" operator="out"/>
<feColorMatrix type="matrix" values="0 0 0 0 0 0 0 0 0 0 0 0 0 0 0 0 0 0 0.1 0"/>
<feBlend mode="normal" in2="BackgroundImageFix" result="effect1_dropShadow_353_37684"/>
<feBlend mode="normal" in="SourceGraphic" in2="effect1_dropShadow_353_37684" result="shape"/>
</filter>
<filter id="filter1_i_353_37684" x="10.8564" y="9.30713" width="5.06044" height="25.1557" filterUnits="userSpaceOnUse" color-interpolation-filters="sRGB">
<feFlood flood-opacity="0" result="BackgroundImageFix"/>
<feBlend mode="normal" in="SourceGraphic" in2="BackgroundImageFix" result="shape"/>
<feColorMatrix in="SourceAlpha" type="matrix" values="0 0 0 0 0 0 0 0 0 0 0 0 0 0 0 0 0 0 127 0" result="hardAlpha"/>
<feOffset dx="1.01747" dy="1.01747"/>
<feGaussianBlur stdDeviation="0.508737"/>
<feComposite in2="hardAlpha" operator="arithmetic" k2="-1" k3="1"/>
<feColorMatrix type="matrix" values="0 0 0 0 0 0 0 0 0 0 0 0 0 0 0 0 0 0 0.2 0"/>
<feBlend mode="normal" in2="shape" result="effect1_innerShadow_353_37684"/>
</filter>
<filter id="filter2_i_353_37684" x="19.042" y="9.30713" width="5.06044" height="25.1557" filterUnits="userSpaceOnUse" color-interpolation-filters="sRGB">
<feFlood flood-opacity="0" result="BackgroundImageFix"/>
<feBlend mode="normal" in="SourceGraphic" in2="BackgroundImageFix" result="shape"/>
<feColorMatrix in="SourceAlpha" type="matrix" values="0 0 0 0 0 0 0 0 0 0 0 0 0 0 0 0 0 0 127 0" result="hardAlpha"/>
<feOffset dx="1.01747" dy="1.01747"/>
<feGaussianBlur stdDeviation="0.508737"/>
<feComposite in2="hardAlpha" operator="arithmetic" k2="-1" k3="1"/>
<feColorMatrix type="matrix" values="0 0 0 0 0 0 0 0 0 0 0 0 0 0 0 0 0 0 0.2 0"/>
<feBlend mode="normal" in2="shape" result="effect1_innerShadow_353_37684"/>
</filter>
<filter id="filter3_i_353_37684" x="27.2275" y="9.30713" width="5.06044" height="25.1557" filterUnits="userSpaceOnUse" color-interpolation-filters="sRGB">
<feFlood flood-opacity="0" result="BackgroundImageFix"/>
<feBlend mode="normal" in="SourceGraphic" in2="BackgroundImageFix" result="shape"/>
<feColorMatrix in="SourceAlpha" type="matrix" values="0 0 0 0 0 0 0 0 0 0 0 0 0 0 0 0 0 0 127 0" result="hardAlpha"/>
<feOffset dx="1.01747" dy="1.01747"/>
<feGaussianBlur stdDeviation="0.508737"/>
<feComposite in2="hardAlpha" operator="arithmetic" k2="-1" k3="1"/>
<feColorMatrix type="matrix" values="0 0 0 0 0 0 0 0 0 0 0 0 0 0 0 0 0 0 0.2 0"/>
<feBlend mode="normal" in2="shape" result="effect1_innerShadow_353_37684"/>
</filter>
<filter id="filter4_i_353_37684" x="35.4131" y="9.30713" width="5.06044" height="25.1557" filterUnits="userSpaceOnUse" color-interpolation-filters="sRGB">
<feFlood flood-opacity="0" result="BackgroundImageFix"/>
<feBlend mode="normal" in="SourceGraphic" in2="BackgroundImageFix" result="shape"/>
<feColorMatrix in="SourceAlpha" type="matrix" values="0 0 0 0 0 0 0 0 0 0 0 0 0 0 0 0 0 0 127 0" result="hardAlpha"/>
<feOffset dx="1.01747" dy="1.01747"/>
<feGaussianBlur stdDeviation="0.508737"/>
<feComposite in2="hardAlpha" operator="arithmetic" k2="-1" k3="1"/>
<feColorMatrix type="matrix" values="0 0 0 0 0 0 0 0 0 0 0 0 0 0 0 0 0 0 0.2 0"/>
<feBlend mode="normal" in2="shape" result="effect1_innerShadow_353_37684"/>
</filter>
<filter id="filter5_i_353_37684" x="43.5986" y="9.30713" width="5.06044" height="25.1557" filterUnits="userSpaceOnUse" color-interpolation-filters="sRGB">
<feFlood flood-opacity="0" result="BackgroundImageFix"/>
<feBlend mode="normal" in="SourceGraphic" in2="BackgroundImageFix" result="shape"/>
<feColorMatrix in="SourceAlpha" type="matrix" values="0 0 0 0 0 0 0 0 0 0 0 0 0 0 0 0 0 0 127 0" result="hardAlpha"/>
<feOffset dx="1.01747" dy="1.01747"/>
<feGaussianBlur stdDeviation="0.508737"/>
<feComposite in2="hardAlpha" operator="arithmetic" k2="-1" k3="1"/>
<feColorMatrix type="matrix" values="0 0 0 0 0 0 0 0 0 0 0 0 0 0 0 0 0 0 0.2 0"/>
<feBlend mode="normal" in2="shape" result="effect1_innerShadow_353_37684"/>
</filter>
</defs>
</svg>
