<svg width="49" height="49" viewBox="0 0 49 49" fill="none" xmlns="http://www.w3.org/2000/svg">
<path d="M19.8838 22.3848H15.8545V15.9619H19.8838V22.3848ZM33.0459 22.3848H29.0166V15.9619H33.0459V22.3848ZM24.4502 7.39746C25.5789 7.39749 26.6965 7.6185 27.7393 8.04883C28.7821 8.47921 29.7302 9.11004 30.5283 9.90527C31.3264 10.7005 31.9597 11.6446 32.3916 12.6836C32.8235 13.7226 33.0449 14.8363 33.0449 15.9609H29.0146C29.0146 15.3638 28.8964 14.7724 28.667 14.2207C28.4376 13.669 28.1016 13.1674 27.6777 12.7451C27.2539 12.3228 26.7501 11.9883 26.1963 11.7598C25.6427 11.5313 25.0494 11.4131 24.4502 11.4131C23.8508 11.4131 23.2569 11.5312 22.7031 11.7598C22.1495 11.9883 21.6464 12.323 21.2227 12.7451C20.7989 13.1674 20.4628 13.669 20.2334 14.2207C20.004 14.7724 19.8858 15.3638 19.8857 15.9609H15.8545C15.8545 14.8363 16.0768 13.7226 16.5088 12.6836C16.9407 11.6446 17.5739 10.7005 18.3721 9.90527C19.1701 9.11016 20.1175 8.47919 21.1602 8.04883C22.203 7.61845 23.3214 7.39746 24.4502 7.39746Z" fill="#072FC4"/>
<path d="M19.8838 22.3848H15.8545V15.9619H19.8838V22.3848ZM33.0459 22.3848H29.0166V15.9619H33.0459V22.3848ZM24.4502 7.39746C25.5789 7.39749 26.6965 7.6185 27.7393 8.04883C28.7821 8.47921 29.7302 9.11004 30.5283 9.90527C31.3264 10.7005 31.9597 11.6446 32.3916 12.6836C32.8235 13.7226 33.0449 14.8363 33.0449 15.9609H29.0146C29.0146 15.3638 28.8964 14.7724 28.667 14.2207C28.4376 13.669 28.1016 13.1674 27.6777 12.7451C27.2539 12.3228 26.7501 11.9883 26.1963 11.7598C25.6427 11.5313 25.0494 11.4131 24.4502 11.4131C23.8508 11.4131 23.2569 11.5312 22.7031 11.7598C22.1495 11.9883 21.6464 12.323 21.2227 12.7451C20.7989 13.1674 20.4628 13.669 20.2334 14.2207C20.004 14.7724 19.8858 15.3638 19.8857 15.9609H15.8545C15.8545 14.8363 16.0768 13.7226 16.5088 12.6836C16.9407 11.6446 17.5739 10.7005 18.3721 9.90527C19.1701 9.11016 20.1175 8.47919 21.1602 8.04883C22.203 7.61845 23.3214 7.39746 24.4502 7.39746Z" fill="white" fill-opacity="0.3"/>
<rect x="12.998" y="20.8242" width="22.8566" height="18.571" rx="0.571415" fill="#072FC4"/>
<g filter="url(#filter0_i_353_37754)">
<path d="M24.3711 25.9688C25.6026 25.9688 26.6005 26.9668 26.6006 28.1982C26.6006 29.0063 26.1699 29.7117 25.5263 30.1025C25.4288 30.1617 25.3633 30.2645 25.3633 30.3786V34.1064C25.3633 34.2642 25.2349 34.3926 25.0771 34.3926H23.667C23.5092 34.3926 23.3809 34.2642 23.3809 34.1064V30.3797C23.3809 30.2656 23.3153 30.1627 23.2176 30.1035C22.5731 29.7129 22.1416 29.007 22.1416 28.1982C22.1417 26.9668 23.1396 25.9688 24.3711 25.9688Z" fill="white"/>
</g>
<rect x="0.50293" y="0.396484" width="15.9996" height="3.99991" rx="0.999977" fill="#072FC4"/>
<rect x="0.50293" y="0.396484" width="15.9996" height="3.99991" rx="0.999977" fill="white" fill-opacity="0.3"/>
<rect x="0.50293" y="0.396484" width="3.99991" height="15.9996" rx="0.999977" fill="#072FC4"/>
<rect x="0.50293" y="0.396484" width="3.99991" height="15.9996" rx="0.999977" fill="white" fill-opacity="0.3"/>
<rect width="15.9996" height="3.99991" rx="0.999977" transform="matrix(1 0 0 -1 0.50293 48.3965)" fill="#072FC4"/>
<rect width="15.9996" height="3.99991" rx="0.999977" transform="matrix(1 0 0 -1 0.50293 48.3965)" fill="white" fill-opacity="0.3"/>
<rect width="3.99991" height="15.9996" rx="0.999977" transform="matrix(1 0 0 -1 0.50293 48.3965)" fill="#072FC4"/>
<rect width="3.99991" height="15.9996" rx="0.999977" transform="matrix(1 0 0 -1 0.50293 48.3965)" fill="white" fill-opacity="0.3"/>
<rect x="48.499" y="48.3965" width="15.9996" height="3.99991" rx="0.999977" transform="rotate(180 48.499 48.3965)" fill="#072FC4"/>
<rect x="48.499" y="48.3965" width="15.9996" height="3.99991" rx="0.999977" transform="rotate(180 48.499 48.3965)" fill="white" fill-opacity="0.3"/>
<rect x="48.499" y="48.3965" width="3.99991" height="15.9996" rx="0.999977" transform="rotate(180 48.499 48.3965)" fill="#072FC4"/>
<rect x="48.499" y="48.3965" width="3.99991" height="15.9996" rx="0.999977" transform="rotate(180 48.499 48.3965)" fill="white" fill-opacity="0.3"/>
<rect width="15.9996" height="3.99991" rx="0.999977" transform="matrix(-1 0 0 1 48.499 0.396484)" fill="#072FC4"/>
<rect width="15.9996" height="3.99991" rx="0.999977" transform="matrix(-1 0 0 1 48.499 0.396484)" fill="white" fill-opacity="0.3"/>
<rect width="3.99991" height="15.9996" rx="0.999977" transform="matrix(-1 0 0 1 48.499 0.396484)" fill="#072FC4"/>
<rect width="3.99991" height="15.9996" rx="0.999977" transform="matrix(-1 0 0 1 48.499 0.396484)" fill="white" fill-opacity="0.3"/>
<defs>
<filter id="filter0_i_353_37754" x="22.1416" y="25.9688" width="5.36155" height="9.32639" filterUnits="userSpaceOnUse" color-interpolation-filters="sRGB">
<feFlood flood-opacity="0" result="BackgroundImageFix"/>
<feBlend mode="normal" in="SourceGraphic" in2="BackgroundImageFix" result="shape"/>
<feColorMatrix in="SourceAlpha" type="matrix" values="0 0 0 0 0 0 0 0 0 0 0 0 0 0 0 0 0 0 127 0" result="hardAlpha"/>
<feOffset dx="0.902567" dy="0.902567"/>
<feGaussianBlur stdDeviation="0.451283"/>
<feComposite in2="hardAlpha" operator="arithmetic" k2="-1" k3="1"/>
<feColorMatrix type="matrix" values="0 0 0 0 0 0 0 0 0 0 0 0 0 0 0 0 0 0 0.15 0"/>
<feBlend mode="normal" in2="shape" result="effect1_innerShadow_353_37754"/>
</filter>
</defs>
</svg>
