<svg width="44" height="60" viewBox="0 0 44 60" fill="none" xmlns="http://www.w3.org/2000/svg">
<rect x="2.05734" y="31.6848" width="38.885" height="25.0973" rx="0.673723" fill="#072FC4"/>
<rect x="2.05734" y="31.6848" width="38.885" height="25.0973" rx="0.673723" stroke="#072FC4" stroke-width="0.122495"/>
<rect x="2.05734" y="31.6848" width="38.885" height="25.0973" rx="0.673723" stroke="white" stroke-opacity="0.1" stroke-width="0.122495"/>
<g filter="url(#filter0_d_353_37724)">
<path d="M42.5 57.6483C42.5 58.0615 42.165 58.3965 41.7519 58.3965H1.24815C0.834957 58.3965 0.5 58.0615 0.5 57.6483V30.879C0.5 30.4658 0.834957 30.1309 1.24815 30.1309H41.7519C42.165 30.1309 42.5 30.4658 42.5 30.879V57.6483ZM3.49219 54.6562C3.49219 55.0693 3.82714 55.4043 4.24033 55.4043H38.7587C39.1719 55.4043 39.5068 55.0693 39.5068 54.6562V33.8712C39.5068 33.458 39.1719 33.123 38.7587 33.123H4.24033C3.82714 33.123 3.49219 33.458 3.49219 33.8712V54.6562Z" fill="#072FC4"/>
<path d="M42.5 57.6483C42.5 58.0615 42.165 58.3965 41.7519 58.3965H1.24815C0.834957 58.3965 0.5 58.0615 0.5 57.6483V30.879C0.5 30.4658 0.834957 30.1309 1.24815 30.1309H41.7519C42.165 30.1309 42.5 30.4658 42.5 30.879V57.6483ZM3.49219 54.6562C3.49219 55.0693 3.82714 55.4043 4.24033 55.4043H38.7587C39.1719 55.4043 39.5068 55.0693 39.5068 54.6562V33.8712C39.5068 33.458 39.1719 33.123 38.7587 33.123H4.24033C3.82714 33.123 3.49219 33.458 3.49219 33.8712V54.6562Z" fill="white" fill-opacity="0.3"/>
</g>
<g filter="url(#filter1_i_353_37724)">
<rect x="10.9199" y="36.1763" width="17.436" height="2.92019" rx="0.374073" transform="rotate(90 10.9199 36.1763)" fill="white"/>
</g>
<g filter="url(#filter2_i_353_37724)">
<rect x="16.833" y="36.1763" width="17.436" height="2.92019" rx="0.374073" transform="rotate(90 16.833 36.1763)" fill="white"/>
</g>
<g filter="url(#filter3_i_353_37724)">
<rect x="22.7461" y="36.1763" width="17.436" height="2.92019" rx="0.374073" transform="rotate(90 22.7461 36.1763)" fill="white"/>
</g>
<g filter="url(#filter4_i_353_37724)">
<rect x="28.6582" y="36.1763" width="17.436" height="2.92019" rx="0.374073" transform="rotate(90 28.6582 36.1763)" fill="white"/>
</g>
<g filter="url(#filter5_i_353_37724)">
<rect x="34.5713" y="36.1763" width="17.436" height="2.92019" rx="0.374073" transform="rotate(90 34.5713 36.1763)" fill="white"/>
</g>
<rect x="2.05734" y="1.95041" width="38.885" height="25.1507" rx="0.673723" fill="#072FC4"/>
<rect x="2.05734" y="1.95041" width="38.885" height="25.1507" rx="0.673723" stroke="#072FC4" stroke-width="0.122495"/>
<rect x="2.05734" y="1.95041" width="38.885" height="25.1507" rx="0.673723" stroke="white" stroke-opacity="0.1" stroke-width="0.122495"/>
<g filter="url(#filter6_d_353_37724)">
<path d="M42.5 27.911C42.5 28.3242 42.165 28.6592 41.7519 28.6592H1.24815C0.834957 28.6592 0.5 28.3242 0.5 27.911V1.1417C0.5 0.728511 0.834957 0.393555 1.24815 0.393555H41.7519C42.165 0.393555 42.5 0.728511 42.5 1.1417V27.911ZM3.49219 24.9188C3.49219 25.332 3.82714 25.667 4.24033 25.667H38.7587C39.1719 25.667 39.5068 25.332 39.5068 24.9188V4.13389C39.5068 3.7207 39.1719 3.38574 38.7587 3.38574H4.24033C3.82714 3.38574 3.49219 3.7207 3.49219 4.13389V24.9188Z" fill="#072FC4"/>
<path d="M42.5 27.911C42.5 28.3242 42.165 28.6592 41.7519 28.6592H1.24815C0.834957 28.6592 0.5 28.3242 0.5 27.911V1.1417C0.5 0.728511 0.834957 0.393555 1.24815 0.393555H41.7519C42.165 0.393555 42.5 0.728511 42.5 1.1417V27.911ZM3.49219 24.9188C3.49219 25.332 3.82714 25.667 4.24033 25.667H38.7587C39.1719 25.667 39.5068 25.332 39.5068 24.9188V4.13389C39.5068 3.7207 39.1719 3.38574 38.7587 3.38574H4.24033C3.82714 3.38574 3.49219 3.7207 3.49219 4.13389V24.9188Z" fill="white" fill-opacity="0.3"/>
</g>
<g filter="url(#filter7_i_353_37724)">
<rect x="10.9199" y="6.45361" width="17.436" height="2.92019" rx="0.374073" transform="rotate(90 10.9199 6.45361)" fill="white"/>
</g>
<g filter="url(#filter8_i_353_37724)">
<rect x="16.833" y="6.45361" width="17.436" height="2.92019" rx="0.374073" transform="rotate(90 16.833 6.45361)" fill="white"/>
</g>
<g filter="url(#filter9_i_353_37724)">
<rect x="22.7461" y="6.45361" width="17.436" height="2.92019" rx="0.374073" transform="rotate(90 22.7461 6.45361)" fill="white"/>
</g>
<g filter="url(#filter10_i_353_37724)">
<rect x="28.6582" y="6.45361" width="17.436" height="2.92019" rx="0.374073" transform="rotate(90 28.6582 6.45361)" fill="white"/>
</g>
<g filter="url(#filter11_i_353_37724)">
<rect x="34.5713" y="6.45361" width="17.436" height="2.92019" rx="0.374073" transform="rotate(90 34.5713 6.45361)" fill="white"/>
</g>
<defs>
<filter id="filter0_d_353_37724" x="0.5" y="30.1309" width="43.4699" height="29.7356" filterUnits="userSpaceOnUse" color-interpolation-filters="sRGB">
<feFlood flood-opacity="0" result="BackgroundImageFix"/>
<feColorMatrix in="SourceAlpha" type="matrix" values="0 0 0 0 0 0 0 0 0 0 0 0 0 0 0 0 0 0 127 0" result="hardAlpha"/>
<feOffset dx="0.734971" dy="0.734971"/>
<feGaussianBlur stdDeviation="0.367485"/>
<feComposite in2="hardAlpha" operator="out"/>
<feColorMatrix type="matrix" values="0 0 0 0 0 0 0 0 0 0 0 0 0 0 0 0 0 0 0.1 0"/>
<feBlend mode="normal" in2="BackgroundImageFix" result="effect1_dropShadow_353_37724"/>
<feBlend mode="normal" in="SourceGraphic" in2="effect1_dropShadow_353_37724" result="shape"/>
</filter>
<filter id="filter1_i_353_37724" x="8" y="36.1763" width="3.65489" height="18.171" filterUnits="userSpaceOnUse" color-interpolation-filters="sRGB">
<feFlood flood-opacity="0" result="BackgroundImageFix"/>
<feBlend mode="normal" in="SourceGraphic" in2="BackgroundImageFix" result="shape"/>
<feColorMatrix in="SourceAlpha" type="matrix" values="0 0 0 0 0 0 0 0 0 0 0 0 0 0 0 0 0 0 127 0" result="hardAlpha"/>
<feOffset dx="0.734971" dy="0.734971"/>
<feGaussianBlur stdDeviation="0.367485"/>
<feComposite in2="hardAlpha" operator="arithmetic" k2="-1" k3="1"/>
<feColorMatrix type="matrix" values="0 0 0 0 0 0 0 0 0 0 0 0 0 0 0 0 0 0 0.2 0"/>
<feBlend mode="normal" in2="shape" result="effect1_innerShadow_353_37724"/>
</filter>
<filter id="filter2_i_353_37724" x="13.9131" y="36.1763" width="3.65489" height="18.171" filterUnits="userSpaceOnUse" color-interpolation-filters="sRGB">
<feFlood flood-opacity="0" result="BackgroundImageFix"/>
<feBlend mode="normal" in="SourceGraphic" in2="BackgroundImageFix" result="shape"/>
<feColorMatrix in="SourceAlpha" type="matrix" values="0 0 0 0 0 0 0 0 0 0 0 0 0 0 0 0 0 0 127 0" result="hardAlpha"/>
<feOffset dx="0.734971" dy="0.734971"/>
<feGaussianBlur stdDeviation="0.367485"/>
<feComposite in2="hardAlpha" operator="arithmetic" k2="-1" k3="1"/>
<feColorMatrix type="matrix" values="0 0 0 0 0 0 0 0 0 0 0 0 0 0 0 0 0 0 0.2 0"/>
<feBlend mode="normal" in2="shape" result="effect1_innerShadow_353_37724"/>
</filter>
<filter id="filter3_i_353_37724" x="19.8262" y="36.1763" width="3.65489" height="18.171" filterUnits="userSpaceOnUse" color-interpolation-filters="sRGB">
<feFlood flood-opacity="0" result="BackgroundImageFix"/>
<feBlend mode="normal" in="SourceGraphic" in2="BackgroundImageFix" result="shape"/>
<feColorMatrix in="SourceAlpha" type="matrix" values="0 0 0 0 0 0 0 0 0 0 0 0 0 0 0 0 0 0 127 0" result="hardAlpha"/>
<feOffset dx="0.734971" dy="0.734971"/>
<feGaussianBlur stdDeviation="0.367485"/>
<feComposite in2="hardAlpha" operator="arithmetic" k2="-1" k3="1"/>
<feColorMatrix type="matrix" values="0 0 0 0 0 0 0 0 0 0 0 0 0 0 0 0 0 0 0.2 0"/>
<feBlend mode="normal" in2="shape" result="effect1_innerShadow_353_37724"/>
</filter>
<filter id="filter4_i_353_37724" x="25.7383" y="36.1763" width="3.65489" height="18.171" filterUnits="userSpaceOnUse" color-interpolation-filters="sRGB">
<feFlood flood-opacity="0" result="BackgroundImageFix"/>
<feBlend mode="normal" in="SourceGraphic" in2="BackgroundImageFix" result="shape"/>
<feColorMatrix in="SourceAlpha" type="matrix" values="0 0 0 0 0 0 0 0 0 0 0 0 0 0 0 0 0 0 127 0" result="hardAlpha"/>
<feOffset dx="0.734971" dy="0.734971"/>
<feGaussianBlur stdDeviation="0.367485"/>
<feComposite in2="hardAlpha" operator="arithmetic" k2="-1" k3="1"/>
<feColorMatrix type="matrix" values="0 0 0 0 0 0 0 0 0 0 0 0 0 0 0 0 0 0 0.2 0"/>
<feBlend mode="normal" in2="shape" result="effect1_innerShadow_353_37724"/>
</filter>
<filter id="filter5_i_353_37724" x="31.6514" y="36.1763" width="3.65489" height="18.171" filterUnits="userSpaceOnUse" color-interpolation-filters="sRGB">
<feFlood flood-opacity="0" result="BackgroundImageFix"/>
<feBlend mode="normal" in="SourceGraphic" in2="BackgroundImageFix" result="shape"/>
<feColorMatrix in="SourceAlpha" type="matrix" values="0 0 0 0 0 0 0 0 0 0 0 0 0 0 0 0 0 0 127 0" result="hardAlpha"/>
<feOffset dx="0.734971" dy="0.734971"/>
<feGaussianBlur stdDeviation="0.367485"/>
<feComposite in2="hardAlpha" operator="arithmetic" k2="-1" k3="1"/>
<feColorMatrix type="matrix" values="0 0 0 0 0 0 0 0 0 0 0 0 0 0 0 0 0 0 0.2 0"/>
<feBlend mode="normal" in2="shape" result="effect1_innerShadow_353_37724"/>
</filter>
<filter id="filter6_d_353_37724" x="0.5" y="0.393555" width="43.4699" height="29.7356" filterUnits="userSpaceOnUse" color-interpolation-filters="sRGB">
<feFlood flood-opacity="0" result="BackgroundImageFix"/>
<feColorMatrix in="SourceAlpha" type="matrix" values="0 0 0 0 0 0 0 0 0 0 0 0 0 0 0 0 0 0 127 0" result="hardAlpha"/>
<feOffset dx="0.734971" dy="0.734971"/>
<feGaussianBlur stdDeviation="0.367485"/>
<feComposite in2="hardAlpha" operator="out"/>
<feColorMatrix type="matrix" values="0 0 0 0 0 0 0 0 0 0 0 0 0 0 0 0 0 0 0.1 0"/>
<feBlend mode="normal" in2="BackgroundImageFix" result="effect1_dropShadow_353_37724"/>
<feBlend mode="normal" in="SourceGraphic" in2="effect1_dropShadow_353_37724" result="shape"/>
</filter>
<filter id="filter7_i_353_37724" x="8" y="6.45361" width="3.65489" height="18.171" filterUnits="userSpaceOnUse" color-interpolation-filters="sRGB">
<feFlood flood-opacity="0" result="BackgroundImageFix"/>
<feBlend mode="normal" in="SourceGraphic" in2="BackgroundImageFix" result="shape"/>
<feColorMatrix in="SourceAlpha" type="matrix" values="0 0 0 0 0 0 0 0 0 0 0 0 0 0 0 0 0 0 127 0" result="hardAlpha"/>
<feOffset dx="0.734971" dy="0.734971"/>
<feGaussianBlur stdDeviation="0.367485"/>
<feComposite in2="hardAlpha" operator="arithmetic" k2="-1" k3="1"/>
<feColorMatrix type="matrix" values="0 0 0 0 0 0 0 0 0 0 0 0 0 0 0 0 0 0 0.2 0"/>
<feBlend mode="normal" in2="shape" result="effect1_innerShadow_353_37724"/>
</filter>
<filter id="filter8_i_353_37724" x="13.9131" y="6.45361" width="3.65489" height="18.171" filterUnits="userSpaceOnUse" color-interpolation-filters="sRGB">
<feFlood flood-opacity="0" result="BackgroundImageFix"/>
<feBlend mode="normal" in="SourceGraphic" in2="BackgroundImageFix" result="shape"/>
<feColorMatrix in="SourceAlpha" type="matrix" values="0 0 0 0 0 0 0 0 0 0 0 0 0 0 0 0 0 0 127 0" result="hardAlpha"/>
<feOffset dx="0.734971" dy="0.734971"/>
<feGaussianBlur stdDeviation="0.367485"/>
<feComposite in2="hardAlpha" operator="arithmetic" k2="-1" k3="1"/>
<feColorMatrix type="matrix" values="0 0 0 0 0 0 0 0 0 0 0 0 0 0 0 0 0 0 0.2 0"/>
<feBlend mode="normal" in2="shape" result="effect1_innerShadow_353_37724"/>
</filter>
<filter id="filter9_i_353_37724" x="19.8262" y="6.45361" width="3.65489" height="18.171" filterUnits="userSpaceOnUse" color-interpolation-filters="sRGB">
<feFlood flood-opacity="0" result="BackgroundImageFix"/>
<feBlend mode="normal" in="SourceGraphic" in2="BackgroundImageFix" result="shape"/>
<feColorMatrix in="SourceAlpha" type="matrix" values="0 0 0 0 0 0 0 0 0 0 0 0 0 0 0 0 0 0 127 0" result="hardAlpha"/>
<feOffset dx="0.734971" dy="0.734971"/>
<feGaussianBlur stdDeviation="0.367485"/>
<feComposite in2="hardAlpha" operator="arithmetic" k2="-1" k3="1"/>
<feColorMatrix type="matrix" values="0 0 0 0 0 0 0 0 0 0 0 0 0 0 0 0 0 0 0.2 0"/>
<feBlend mode="normal" in2="shape" result="effect1_innerShadow_353_37724"/>
</filter>
<filter id="filter10_i_353_37724" x="25.7383" y="6.45361" width="3.65489" height="18.171" filterUnits="userSpaceOnUse" color-interpolation-filters="sRGB">
<feFlood flood-opacity="0" result="BackgroundImageFix"/>
<feBlend mode="normal" in="SourceGraphic" in2="BackgroundImageFix" result="shape"/>
<feColorMatrix in="SourceAlpha" type="matrix" values="0 0 0 0 0 0 0 0 0 0 0 0 0 0 0 0 0 0 127 0" result="hardAlpha"/>
<feOffset dx="0.734971" dy="0.734971"/>
<feGaussianBlur stdDeviation="0.367485"/>
<feComposite in2="hardAlpha" operator="arithmetic" k2="-1" k3="1"/>
<feColorMatrix type="matrix" values="0 0 0 0 0 0 0 0 0 0 0 0 0 0 0 0 0 0 0.2 0"/>
<feBlend mode="normal" in2="shape" result="effect1_innerShadow_353_37724"/>
</filter>
<filter id="filter11_i_353_37724" x="31.6514" y="6.45361" width="3.65489" height="18.171" filterUnits="userSpaceOnUse" color-interpolation-filters="sRGB">
<feFlood flood-opacity="0" result="BackgroundImageFix"/>
<feBlend mode="normal" in="SourceGraphic" in2="BackgroundImageFix" result="shape"/>
<feColorMatrix in="SourceAlpha" type="matrix" values="0 0 0 0 0 0 0 0 0 0 0 0 0 0 0 0 0 0 127 0" result="hardAlpha"/>
<feOffset dx="0.734971" dy="0.734971"/>
<feGaussianBlur stdDeviation="0.367485"/>
<feComposite in2="hardAlpha" operator="arithmetic" k2="-1" k3="1"/>
<feColorMatrix type="matrix" values="0 0 0 0 0 0 0 0 0 0 0 0 0 0 0 0 0 0 0.2 0"/>
<feBlend mode="normal" in2="shape" result="effect1_innerShadow_353_37724"/>
</filter>
</defs>
</svg>
