<svg width="56" height="56" viewBox="0 0 56 56" fill="none" xmlns="http://www.w3.org/2000/svg">
<g clip-path="url(#clip0_2004_1327)">
<path d="M27.8333 15.6035C43.2973 15.6035 55.8333 28.1395 55.8333 43.6035C55.8333 47.6737 54.9636 51.5404 53.4017 55.0296C53.244 55.382 52.891 55.6035 52.505 55.6035H3.16164C2.7756 55.6035 2.4226 55.382 2.26489 55.0296C0.703052 51.5404 -0.166687 47.6737 -0.166687 43.6035C-0.166687 28.1395 12.3693 15.6035 27.8333 15.6035Z" fill="#072FC4"/>
<path d="M27.8333 19.6035C41.0881 19.6035 51.8333 30.3487 51.8333 43.6035C51.8333 46.0958 51.4517 48.4988 50.7465 50.7588C50.6821 50.965 50.4901 51.1035 50.2741 51.1035H47.1201C46.7654 51.1035 46.523 50.7443 46.6437 50.4109C47.4131 48.286 47.8333 45.9939 47.8333 43.6035C47.8333 32.5578 38.879 23.6035 27.8333 23.6035C16.7876 23.6035 7.83331 32.5578 7.83331 43.6035C7.83331 45.9939 8.25357 48.286 9.02291 50.4109C9.14364 50.7443 8.90118 51.1035 8.54657 51.1035H5.39254C5.17656 51.1035 4.98449 50.965 4.92016 50.7588C4.21495 48.4988 3.83331 46.0958 3.83331 43.6035C3.83331 30.3487 14.5785 19.6035 27.8333 19.6035Z" fill="#516DD6"/>
<g filter="url(#filter0_i_2004_1327)">
<path d="M51.5316 36.3786C51.78 36.294 52.0515 36.4157 52.1535 36.6575L52.5985 37.7118C52.7011 37.955 52.5971 38.236 52.3609 38.3537L27.1129 50.9379C26.8584 51.0648 26.5494 50.954 26.4334 50.6944L24.4214 46.1919C24.3013 45.9232 24.4381 45.6095 24.7166 45.5146L51.5316 36.3786Z" fill="white"/>
</g>
</g>
<defs>
<filter id="filter0_i_2004_1327" x="24.3777" y="36.3518" width="29.7603" height="16.1387" filterUnits="userSpaceOnUse" color-interpolation-filters="sRGB">
<feFlood flood-opacity="0" result="BackgroundImageFix"/>
<feBlend mode="normal" in="SourceGraphic" in2="BackgroundImageFix" result="shape"/>
<feColorMatrix in="SourceAlpha" type="matrix" values="0 0 0 0 0 0 0 0 0 0 0 0 0 0 0 0 0 0 127 0" result="hardAlpha"/>
<feOffset dx="1.5" dy="1.5"/>
<feGaussianBlur stdDeviation="0.75"/>
<feComposite in2="hardAlpha" operator="arithmetic" k2="-1" k3="1"/>
<feColorMatrix type="matrix" values="0 0 0 0 0 0 0 0 0 0 0 0 0 0 0 0 0 0 0.15 0"/>
<feBlend mode="normal" in2="shape" result="effect1_innerShadow_2004_1327"/>
</filter>
<clipPath id="clip0_2004_1327">
<rect width="56" height="56" fill="white"/>
</clipPath>
</defs>
</svg>
