<svg width="56" height="56" viewBox="0 0 56 56" fill="none" xmlns="http://www.w3.org/2000/svg">
<g clip-path="url(#clip0_2004_1328)">
<path d="M33.9205 7.60352C35.6029 7.60352 36.9664 8.96704 36.9664 10.6494C36.9666 12.034 37.9171 13.2271 39.2106 13.7383C39.4141 13.8195 39.6164 13.904 39.817 13.9922C41.0938 14.5466 42.6065 14.3785 43.5905 13.3945C44.1618 12.8246 44.9358 12.5039 45.7428 12.5039C46.5498 12.5039 47.3238 12.8246 47.8951 13.3945L50.3776 15.876C50.9476 16.4474 51.2672 17.2222 51.2672 18.0293C51.2671 18.8362 50.9474 19.6104 50.3776 20.1816C49.396 21.1656 49.228 22.6798 49.7799 23.9541C49.8674 24.155 49.9513 24.3577 50.0319 24.5615C50.5431 25.8551 51.7336 26.8057 53.1207 26.8057C54.8029 26.8059 56.1656 28.1694 56.1656 29.8516V33.3574C56.1656 35.0396 54.8029 36.4031 53.1207 36.4033C51.7336 36.4033 50.5426 37.3539 50.0338 38.6475C49.9523 38.852 49.8678 39.0542 49.7799 39.2539C49.2255 40.5307 49.3936 42.0434 50.3776 43.0273C50.9474 43.5987 51.2672 44.3727 51.2672 45.1797C51.2672 45.9866 50.9474 46.7607 50.3776 47.332L47.8951 49.8145C47.3237 50.385 46.5493 50.705 45.7418 50.7051C44.9342 50.7051 44.159 50.3852 43.5875 49.8145C42.6059 48.8329 41.0914 48.662 39.817 49.2188C39.6172 49.3051 39.4152 49.3888 39.2106 49.4688C37.917 49.9799 36.9664 51.1704 36.9664 52.5576C36.9662 54.2398 35.6027 55.6025 33.9205 55.6025H30.4117C28.7296 55.6025 27.3661 54.2397 27.3658 52.5576C27.3658 51.1705 26.4161 49.9796 25.1227 49.4707C24.918 49.3891 24.7152 49.3048 24.5153 49.2168C23.2385 48.6624 21.7268 48.8305 20.7428 49.8145C20.1714 50.3845 19.3966 50.7041 18.5895 50.7041C17.7825 50.7041 17.0085 50.3843 16.4371 49.8145L13.9557 47.332C13.3856 46.7606 13.0651 45.9868 13.0651 45.1797C13.0651 44.3725 13.3856 43.5987 13.9557 43.0273C14.9373 42.0434 15.1048 40.5283 14.5504 39.2539C14.4657 39.0541 14.3816 38.852 14.2985 38.6475C13.7897 37.354 12.5996 36.4035 11.2125 36.4033C9.53015 36.4033 8.16663 35.0398 8.16663 33.3574V29.8486C8.16668 28.1663 9.53019 26.8027 11.2125 26.8027C12.5994 26.8026 13.7896 25.8529 14.2985 24.5596C14.379 24.3558 14.463 24.153 14.5504 23.9521C15.1071 22.6755 14.9393 21.1637 13.9557 20.1797C13.3856 19.6083 13.0651 18.8335 13.0651 18.0264C13.0651 17.2193 13.3856 16.4454 13.9557 15.874L16.4371 13.3926C17.0085 12.8225 17.7824 12.502 18.5895 12.502C19.3966 12.502 20.1714 12.8225 20.7428 13.3926C21.7268 14.3738 23.2411 14.5421 24.5153 13.9902C24.7153 13.9038 24.9179 13.8186 25.1227 13.7354C26.416 13.2265 27.3657 12.0363 27.3658 10.6494C27.3658 8.96704 28.7299 7.60352 30.4147 7.60352H33.9205ZM32.1647 22.0039C29.6189 22.004 27.1777 23.0154 25.3776 24.8154C23.5773 26.6157 22.5651 29.0575 22.5651 31.6035C22.5651 34.1494 23.5773 36.5914 25.3776 38.3916C27.1777 40.1915 29.619 41.203 32.1647 41.2031C34.7105 41.2031 37.1525 40.1917 38.9528 38.3916C40.753 36.5914 41.7642 34.1494 41.7643 31.6035C41.7643 29.0575 40.753 26.6157 38.9528 24.8154C37.1525 23.0152 34.7106 22.0039 32.1647 22.0039Z" fill="#072FC4"/>
<circle cx="32.1652" cy="31.6035" r="13.9998" fill="#516DD6"/>
<g filter="url(#filter0_i_2004_1328)">
<path d="M42.1679 31.6034C42.1679 34.2555 41.1143 36.799 39.239 38.6744C37.3636 40.5497 34.8201 41.6033 32.168 41.6033C29.5158 41.6033 26.9723 40.5497 25.097 38.6744C23.2216 36.799 22.1681 34.2555 22.1681 31.6034C22.1681 28.9513 23.2216 26.4078 25.097 24.5324C26.9723 22.6571 29.5158 21.6035 32.168 21.6035C34.8201 21.6035 37.3636 22.6571 39.239 24.5324C41.1143 26.4078 42.1679 28.9513 42.1679 31.6034Z" fill="white"/>
</g>
</g>
<defs>
<filter id="filter0_i_2004_1328" x="22.1681" y="21.6035" width="21.4997" height="21.4997" filterUnits="userSpaceOnUse" color-interpolation-filters="sRGB">
<feFlood flood-opacity="0" result="BackgroundImageFix"/>
<feBlend mode="normal" in="SourceGraphic" in2="BackgroundImageFix" result="shape"/>
<feColorMatrix in="SourceAlpha" type="matrix" values="0 0 0 0 0 0 0 0 0 0 0 0 0 0 0 0 0 0 127 0" result="hardAlpha"/>
<feOffset dx="1.49998" dy="1.49998"/>
<feGaussianBlur stdDeviation="0.749991"/>
<feComposite in2="hardAlpha" operator="arithmetic" k2="-1" k3="1"/>
<feColorMatrix type="matrix" values="0 0 0 0 0 0 0 0 0 0 0 0 0 0 0 0 0 0 0.15 0"/>
<feBlend mode="normal" in2="shape" result="effect1_innerShadow_2004_1328"/>
</filter>
<clipPath id="clip0_2004_1328">
<rect width="56" height="56" fill="white"/>
</clipPath>
</defs>
</svg>
