<svg width="57" height="57" viewBox="0 0 57 57" fill="none" xmlns="http://www.w3.org/2000/svg">
<rect x="0.5" y="15.6035" width="56" height="32" rx="1" fill="#072FC4"/>
<rect x="42.0002" y="51.6035" width="4" height="27" rx="1" transform="rotate(90 42.0002 51.6035)" fill="#516DD6"/>
<g filter="url(#filter0_i_2004_1329)">
<path d="M29.8118 23.0068C30.4626 23.0068 30.9905 23.5347 30.9905 24.1855C30.9906 24.7212 31.3583 25.1821 31.8586 25.3799C31.9374 25.4113 32.0154 25.4444 32.093 25.4785C32.587 25.693 33.1723 25.6277 33.553 25.2471C33.774 25.0267 34.0738 24.9033 34.386 24.9033C34.6982 24.9034 34.998 25.0266 35.219 25.2471L36.179 26.208C36.3992 26.4289 36.5226 26.7281 36.5227 27.04C36.5227 27.3522 36.3994 27.652 36.179 27.873C35.7992 28.2537 35.734 28.84 35.9475 29.333C35.9813 29.4106 36.0141 29.4887 36.0452 29.5674C36.2429 30.0677 36.703 30.4353 37.2395 30.4355C37.8904 30.4355 38.4182 30.9634 38.4182 31.6143V32.9707C38.4182 33.6215 37.8904 34.1484 37.2395 34.1484C36.7032 34.1487 36.243 34.5165 36.0461 35.0166C36.0146 35.0958 35.9816 35.1746 35.9475 35.252C35.733 35.7459 35.7983 36.3312 36.179 36.7119C36.3992 36.9328 36.5226 37.232 36.5227 37.5439C36.5227 37.8561 36.3994 38.1559 36.179 38.377L35.219 39.3369C34.9979 39.5578 34.6975 39.6826 34.385 39.6826C34.0726 39.6825 33.773 39.5577 33.552 39.3369C33.1722 38.9573 32.586 38.892 32.093 39.1074C32.0159 39.1407 31.9376 39.1723 31.8586 39.2031C31.3582 39.4009 30.9905 39.8618 30.9905 40.3984C30.9905 41.0493 30.4626 41.5771 29.8118 41.5771H28.4543C27.8036 41.577 27.2766 41.0492 27.2766 40.3984C27.2766 39.8618 26.9089 39.4009 26.4084 39.2041C26.3292 39.1725 26.2505 39.1405 26.1731 39.1064C25.6793 38.8921 25.0948 38.9566 24.7141 39.3369C24.4931 39.5574 24.1933 39.6816 23.8811 39.6816C23.5688 39.6816 23.2692 39.5575 23.0481 39.3369L22.0881 38.377C21.8676 38.1559 21.7434 37.8562 21.7434 37.5439C21.7435 37.2319 21.8678 36.9329 22.0881 36.7119C22.4679 36.3313 22.533 35.745 22.3186 35.252C22.2858 35.1746 22.2531 35.0958 22.2209 35.0166C22.024 34.5163 21.5632 34.1484 21.0266 34.1484C20.3758 34.1484 19.8489 33.6215 19.8489 32.9707V31.6133C19.8489 30.9625 20.3758 30.4347 21.0266 30.4346C21.5633 30.4346 22.0241 30.0669 22.2209 29.5664C22.2521 29.4877 22.2848 29.4096 22.3186 29.332C22.534 28.8381 22.4688 28.2527 22.0881 27.8721C21.8676 27.651 21.7434 27.3513 21.7434 27.0391C21.7435 26.727 21.8678 26.428 22.0881 26.207L23.0481 25.2461C23.2691 25.0257 23.569 24.9023 23.8811 24.9023C24.1933 24.9024 24.4931 25.0256 24.7141 25.2461C25.0948 25.6258 25.6801 25.691 26.1731 25.4775C26.2505 25.4441 26.3292 25.4111 26.4084 25.3789C26.9087 25.182 27.2765 24.722 27.2766 24.1855C27.2766 23.5348 27.8036 23.007 28.4553 23.0068H29.8118ZM29.1331 28.5781C28.1481 28.5781 27.2036 28.9696 26.5071 29.666C25.8106 30.3625 25.4192 31.307 25.4192 32.292C25.4192 33.277 25.8106 34.2215 26.5071 34.918C27.2036 35.6144 28.1481 36.0059 29.1331 36.0059C30.118 36.0058 31.0626 35.6144 31.759 34.918C32.4555 34.2215 32.8469 33.277 32.8469 32.292C32.8469 31.307 32.4555 30.3625 31.759 29.666C31.0626 28.9696 30.118 28.5782 29.1331 28.5781Z" fill="white"/>
</g>
<defs>
<filter id="filter0_i_2004_1329" x="19.8489" y="23.0068" width="20.0693" height="20.0703" filterUnits="userSpaceOnUse" color-interpolation-filters="sRGB">
<feFlood flood-opacity="0" result="BackgroundImageFix"/>
<feBlend mode="normal" in="SourceGraphic" in2="BackgroundImageFix" result="shape"/>
<feColorMatrix in="SourceAlpha" type="matrix" values="0 0 0 0 0 0 0 0 0 0 0 0 0 0 0 0 0 0 127 0" result="hardAlpha"/>
<feOffset dx="1.5" dy="1.5"/>
<feGaussianBlur stdDeviation="0.75"/>
<feComposite in2="hardAlpha" operator="arithmetic" k2="-1" k3="1"/>
<feColorMatrix type="matrix" values="0 0 0 0 0 0 0 0 0 0 0 0 0 0 0 0 0 0 0.15 0"/>
<feBlend mode="normal" in2="shape" result="effect1_innerShadow_2004_1329"/>
</filter>
</defs>
</svg>
