<svg width="56" height="56" viewBox="0 0 56 56" fill="none" xmlns="http://www.w3.org/2000/svg">
<g clip-path="url(#clip0_2004_1333)">
<path d="M19.1045 16.2758C19.2441 15.8734 19.6233 15.6035 20.0493 15.6035H36.2837C36.7097 15.6035 37.0889 15.8734 37.2285 16.2758L50.4087 54.2757C50.634 54.9254 50.1516 55.6034 49.4639 55.6034L6.86916 55.6035C6.1815 55.6035 5.69903 54.9255 5.92437 54.2758L19.1045 16.2758Z" fill="#072FC4"/>
<g filter="url(#filter0_i_2004_1333)">
<path d="M31.1663 51.0728C31.184 51.3605 30.9555 51.6035 30.6672 51.6035H26.1672C25.879 51.6035 25.6504 51.3605 25.6681 51.0728L26.1779 42.7799C26.1941 42.5162 26.4128 42.3105 26.677 42.3105H30.1574C30.4217 42.3105 30.6403 42.5162 30.6565 42.7799L31.1663 51.0728ZM30.3529 37.855C30.3706 38.1427 30.142 38.3857 29.8538 38.3857H26.9807C26.6925 38.3857 26.4639 38.1427 26.4816 37.855L26.8342 32.1198C26.8504 31.856 27.069 31.6504 27.3333 31.6504H29.5012C29.7654 31.6504 29.9841 31.856 30.0003 32.1198L30.3529 37.855ZM29.7601 28.2183C29.7778 28.506 29.5492 28.749 29.261 28.749H27.5735C27.2853 28.749 27.0567 28.506 27.0744 28.2183L27.3332 24.0104C27.3494 23.7466 27.5681 23.541 27.8323 23.541H29.0022C29.2664 23.541 29.4851 23.7466 29.5013 24.0104L29.7601 28.2183ZM29.3245 21.1235C29.3422 21.4112 29.1136 21.6543 28.8254 21.6543H28.0091C27.7208 21.6543 27.4923 21.4112 27.51 21.1235L27.6671 18.5728C27.6834 18.3091 27.902 18.1035 28.1662 18.1035H28.6682C28.9325 18.1035 29.1511 18.3091 29.1673 18.5728L29.3245 21.1235Z" fill="white"/>
</g>
<path d="M37.993 16.2729C37.8759 15.9471 38.1173 15.6038 38.4635 15.6038L38.6841 15.6038C38.884 15.6038 39.0648 15.7229 39.1436 15.9067L55.868 54.9064C56.0094 55.2363 55.7674 55.6034 55.4084 55.6034H52.4824C52.2715 55.6034 52.0833 55.471 52.0119 55.2726L37.993 16.2729Z" fill="#516DD6"/>
<path d="M18.3405 16.2727C18.4576 15.9469 18.2162 15.6035 17.87 15.6035L17.6494 15.6035C17.4494 15.6035 17.2687 15.7227 17.1899 15.9065L0.465544 54.9061C0.324053 55.2361 0.566067 55.6032 0.925072 55.6032H3.85106C4.06199 55.6032 4.25023 55.4708 4.32158 55.2723L18.3405 16.2727Z" fill="#516DD6"/>
</g>
<defs>
<filter id="filter0_i_2004_1333" x="25.6671" y="18.1035" width="7.00024" height="35" filterUnits="userSpaceOnUse" color-interpolation-filters="sRGB">
<feFlood flood-opacity="0" result="BackgroundImageFix"/>
<feBlend mode="normal" in="SourceGraphic" in2="BackgroundImageFix" result="shape"/>
<feColorMatrix in="SourceAlpha" type="matrix" values="0 0 0 0 0 0 0 0 0 0 0 0 0 0 0 0 0 0 127 0" result="hardAlpha"/>
<feOffset dx="1.5" dy="1.5"/>
<feGaussianBlur stdDeviation="0.75"/>
<feComposite in2="hardAlpha" operator="arithmetic" k2="-1" k3="1"/>
<feColorMatrix type="matrix" values="0 0 0 0 0 0 0 0 0 0 0 0 0 0 0 0 0 0 0.15 0"/>
<feBlend mode="normal" in2="shape" result="effect1_innerShadow_2004_1333"/>
</filter>
<clipPath id="clip0_2004_1333">
<rect width="56" height="56" fill="white"/>
</clipPath>
</defs>
</svg>
