<svg width="177" height="229" viewBox="0 0 177 229" fill="none" xmlns="http://www.w3.org/2000/svg">
<path d="M85.5527 28.5H185.303C187.926 28.5 190.053 30.6266 190.053 33.25V261.25C190.053 263.873 187.926 266 185.303 266H4.80273C2.17938 266 0.0527344 263.873 0.0527344 261.25V33.25C0.0527344 30.6266 2.17938 28.5 4.80273 28.5L85.5527 28.5Z" fill="#072FC4"/>
<g filter="url(#filter0_d_390_24046)">
<path d="M96.2402 0C106.174 0 114.432 7.17485 116.114 16.625H154.428C155.739 16.625 156.803 17.6883 156.803 19V45.125C156.803 46.4367 155.739 47.5 154.428 47.5H35.6777C34.3661 47.5 33.3027 46.4367 33.3027 45.125V19C33.3027 17.6883 34.3661 16.625 35.6777 16.625H76.3662C78.0488 7.17485 86.3066 0 96.2402 0Z" fill="#516DD6"/>
</g>
<g filter="url(#filter1_i_390_24046)">
<path d="M117.055 124.404C117.736 123.722 118.463 123.345 118.679 123.56L131.334 136.215C131.549 136.431 131.172 137.157 130.49 137.838L110.454 157.875L90.4189 177.911C90.2646 178.065 90.1064 178.202 89.9531 178.321C89.8481 178.402 89.7458 178.487 89.652 178.581L89.4785 178.755C89.4184 178.815 89.3347 178.844 89.2357 178.846C89.0841 178.848 88.9022 178.862 88.7949 178.754C88.7495 178.709 88.698 178.67 88.644 178.636C88.5319 178.564 88.4188 178.475 88.3125 178.369L63.0879 153.144C62.6589 152.715 62.4859 152.192 62.7012 151.977L75.3564 139.322C75.5716 139.107 76.0936 139.28 76.5225 139.708L87.4564 150.642C88.3839 151.57 89.8876 151.57 90.8151 150.642L117.055 124.404Z" fill="white"/>
</g>
<g filter="url(#filter2_i_390_24046)">
<path d="M68.9277 87.875C70.2394 87.875 71.3027 88.9383 71.3027 90.25V104.5C71.3027 105.812 70.2394 106.875 68.9277 106.875H52.3027V123.5C52.3027 124.812 51.2394 125.875 49.9277 125.875H35.6777C34.3661 125.875 33.3027 124.812 33.3027 123.5V90.25C33.3027 88.9383 34.3661 87.875 35.6777 87.875H68.9277Z" fill="white"/>
</g>
<g filter="url(#filter3_i_390_24046)">
<path d="M33.3027 173.375C33.3027 172.063 34.3661 171 35.6777 171L49.9277 171C51.2394 171 52.3027 172.063 52.3027 173.375L52.3027 190L68.9277 190C70.2394 190 71.3027 191.063 71.3027 192.375L71.3027 206.625C71.3027 207.937 70.2394 209 68.9277 209L35.6777 209C34.3661 209 33.3027 207.937 33.3027 206.625L33.3027 173.375Z" fill="white"/>
</g>
<g filter="url(#filter4_i_390_24046)">
<path d="M156.803 123.5C156.803 124.812 155.739 125.875 154.428 125.875L140.178 125.875C138.866 125.875 137.803 124.812 137.803 123.5L137.803 106.875L121.178 106.875C119.866 106.875 118.803 105.812 118.803 104.5L118.803 90.25C118.803 88.9383 119.866 87.875 121.178 87.875L154.428 87.875C155.739 87.875 156.803 88.9383 156.803 90.25L156.803 123.5Z" fill="white"/>
</g>
<g filter="url(#filter5_i_390_24046)">
<path d="M121.178 209C119.866 209 118.803 207.937 118.803 206.625L118.803 192.375C118.803 191.063 119.866 190 121.178 190L137.803 190L137.803 173.375C137.803 172.063 138.866 171 140.178 171L154.428 171C155.739 171 156.803 172.063 156.803 173.375L156.803 206.625C156.803 207.937 155.739 209 154.428 209L121.178 209Z" fill="white"/>
</g>
<defs>
<filter id="filter0_d_390_24046" x="33.3027" y="0" width="139.315" height="63.315" filterUnits="userSpaceOnUse" color-interpolation-filters="sRGB">
<feFlood flood-opacity="0" result="BackgroundImageFix"/>
<feColorMatrix in="SourceAlpha" type="matrix" values="0 0 0 0 0 0 0 0 0 0 0 0 0 0 0 0 0 0 127 0" result="hardAlpha"/>
<feOffset dx="7.90751" dy="7.90751"/>
<feGaussianBlur stdDeviation="3.95376"/>
<feComposite in2="hardAlpha" operator="out"/>
<feColorMatrix type="matrix" values="0 0 0 0 0 0 0 0 0 0 0 0 0 0 0 0 0 0 0.1 0"/>
<feBlend mode="normal" in2="BackgroundImageFix" result="effect1_dropShadow_390_24046"/>
<feBlend mode="normal" in="SourceGraphic" in2="effect1_dropShadow_390_24046" result="shape"/>
</filter>
<filter id="filter1_i_390_24046" x="62.6084" y="123.5" width="75.9111" height="62.4731" filterUnits="userSpaceOnUse" color-interpolation-filters="sRGB">
<feFlood flood-opacity="0" result="BackgroundImageFix"/>
<feBlend mode="normal" in="SourceGraphic" in2="BackgroundImageFix" result="shape"/>
<feColorMatrix in="SourceAlpha" type="matrix" values="0 0 0 0 0 0 0 0 0 0 0 0 0 0 0 0 0 0 127 0" result="hardAlpha"/>
<feOffset dx="7.125" dy="7.125"/>
<feGaussianBlur stdDeviation="3.5625"/>
<feComposite in2="hardAlpha" operator="arithmetic" k2="-1" k3="1"/>
<feColorMatrix type="matrix" values="0 0 0 0 0 0 0 0 0 0 0 0 0 0 0 0 0 0 0.15 0"/>
<feBlend mode="normal" in2="shape" result="effect1_innerShadow_390_24046"/>
</filter>
<filter id="filter2_i_390_24046" x="33.3027" y="87.875" width="45.125" height="45.125" filterUnits="userSpaceOnUse" color-interpolation-filters="sRGB">
<feFlood flood-opacity="0" result="BackgroundImageFix"/>
<feBlend mode="normal" in="SourceGraphic" in2="BackgroundImageFix" result="shape"/>
<feColorMatrix in="SourceAlpha" type="matrix" values="0 0 0 0 0 0 0 0 0 0 0 0 0 0 0 0 0 0 127 0" result="hardAlpha"/>
<feOffset dx="7.125" dy="7.125"/>
<feGaussianBlur stdDeviation="3.5625"/>
<feComposite in2="hardAlpha" operator="arithmetic" k2="-1" k3="1"/>
<feColorMatrix type="matrix" values="0 0 0 0 0 0 0 0 0 0 0 0 0 0 0 0 0 0 0.15 0"/>
<feBlend mode="normal" in2="shape" result="effect1_innerShadow_390_24046"/>
</filter>
<filter id="filter3_i_390_24046" x="33.3027" y="171" width="45.125" height="45.125" filterUnits="userSpaceOnUse" color-interpolation-filters="sRGB">
<feFlood flood-opacity="0" result="BackgroundImageFix"/>
<feBlend mode="normal" in="SourceGraphic" in2="BackgroundImageFix" result="shape"/>
<feColorMatrix in="SourceAlpha" type="matrix" values="0 0 0 0 0 0 0 0 0 0 0 0 0 0 0 0 0 0 127 0" result="hardAlpha"/>
<feOffset dx="7.125" dy="7.125"/>
<feGaussianBlur stdDeviation="3.5625"/>
<feComposite in2="hardAlpha" operator="arithmetic" k2="-1" k3="1"/>
<feColorMatrix type="matrix" values="0 0 0 0 0 0 0 0 0 0 0 0 0 0 0 0 0 0 0.15 0"/>
<feBlend mode="normal" in2="shape" result="effect1_innerShadow_390_24046"/>
</filter>
<filter id="filter4_i_390_24046" x="118.803" y="87.875" width="45.125" height="45.125" filterUnits="userSpaceOnUse" color-interpolation-filters="sRGB">
<feFlood flood-opacity="0" result="BackgroundImageFix"/>
<feBlend mode="normal" in="SourceGraphic" in2="BackgroundImageFix" result="shape"/>
<feColorMatrix in="SourceAlpha" type="matrix" values="0 0 0 0 0 0 0 0 0 0 0 0 0 0 0 0 0 0 127 0" result="hardAlpha"/>
<feOffset dx="7.125" dy="7.125"/>
<feGaussianBlur stdDeviation="3.5625"/>
<feComposite in2="hardAlpha" operator="arithmetic" k2="-1" k3="1"/>
<feColorMatrix type="matrix" values="0 0 0 0 0 0 0 0 0 0 0 0 0 0 0 0 0 0 0.15 0"/>
<feBlend mode="normal" in2="shape" result="effect1_innerShadow_390_24046"/>
</filter>
<filter id="filter5_i_390_24046" x="118.803" y="171" width="45.125" height="45.125" filterUnits="userSpaceOnUse" color-interpolation-filters="sRGB">
<feFlood flood-opacity="0" result="BackgroundImageFix"/>
<feBlend mode="normal" in="SourceGraphic" in2="BackgroundImageFix" result="shape"/>
<feColorMatrix in="SourceAlpha" type="matrix" values="0 0 0 0 0 0 0 0 0 0 0 0 0 0 0 0 0 0 127 0" result="hardAlpha"/>
<feOffset dx="7.125" dy="7.125"/>
<feGaussianBlur stdDeviation="3.5625"/>
<feComposite in2="hardAlpha" operator="arithmetic" k2="-1" k3="1"/>
<feColorMatrix type="matrix" values="0 0 0 0 0 0 0 0 0 0 0 0 0 0 0 0 0 0 0.15 0"/>
<feBlend mode="normal" in2="shape" result="effect1_innerShadow_390_24046"/>
</filter>
</defs>
</svg>
