<svg width="56" height="39" viewBox="0 0 56 39" fill="none" xmlns="http://www.w3.org/2000/svg">
<rect width="56" height="39" rx="1" fill="#072FC4"/>
<path d="M56 38C56 38.5523 55.5523 39 55 39H1C0.447715 39 0 38.5523 0 38V1C0 0.447715 0.447715 0 1 0H55C55.5523 0 56 0.447715 56 1V38ZM4 34C4 34.5523 4.44772 35 5 35H51C51.5523 35 52 34.5523 52 34V5C52 4.44772 51.5523 4 51 4H5C4.44771 4 4 4.44772 4 5V34Z" fill="#516DD6"/>
<g filter="url(#filter0_i_798_4037)">
<path d="M42.3254 26.7555C42.0083 27.0727 41.4661 26.844 41.4719 26.3955L41.5066 23.7059C41.5102 23.4296 41.2889 23.2028 41.0126 23.1995L29.9143 23.0684C29.6382 23.0652 29.417 22.8387 29.4202 22.5626L29.4875 16.8686C29.4908 16.5925 29.7172 16.3713 29.9934 16.3746L41.0984 16.5057C41.3744 16.509 41.6008 16.288 41.6043 16.012L41.6354 13.526C41.6409 13.0836 42.176 12.8658 42.4889 13.1787L48.8419 19.5312C49.0371 19.7265 49.0372 20.0431 48.8419 20.2384L42.3254 26.7555Z" fill="white"/>
</g>
<g filter="url(#filter1_i_798_4037)">
<path d="M13.2488 12.7523C13.566 12.4351 14.1081 12.6638 14.1023 13.1123L14.0676 15.8009C14.064 16.0772 14.2853 16.3041 14.5616 16.3073L25.6589 16.4384C25.9351 16.4416 26.1563 16.6681 26.153 16.9442L26.0858 22.6372C26.0825 22.9133 25.856 23.1345 25.5799 23.1313L14.4758 23.0001C14.1998 22.9969 13.9734 23.2179 13.97 23.4938L13.9388 25.9818C13.9333 26.4242 13.3982 26.642 13.0853 26.3291L6.73234 19.9766C6.53708 19.7813 6.53706 19.4647 6.73231 19.2695L13.2488 12.7523Z" fill="white"/>
</g>
<defs>
<filter id="filter0_i_798_4037" x="29.4204" y="13.0312" width="21.0679" height="15.3716" filterUnits="userSpaceOnUse" color-interpolation-filters="sRGB">
<feFlood flood-opacity="0" result="BackgroundImageFix"/>
<feBlend mode="normal" in="SourceGraphic" in2="BackgroundImageFix" result="shape"/>
<feColorMatrix in="SourceAlpha" type="matrix" values="0 0 0 0 0 0 0 0 0 0 0 0 0 0 0 0 0 0 127 0" result="hardAlpha"/>
<feOffset dx="1.5" dy="1.5"/>
<feGaussianBlur stdDeviation="0.75"/>
<feComposite in2="hardAlpha" operator="arithmetic" k2="-1" k3="1"/>
<feColorMatrix type="matrix" values="0 0 0 0 0 0 0 0 0 0 0 0 0 0 0 0 0 0 0.15 0"/>
<feBlend mode="normal" in2="shape" result="effect1_innerShadow_798_4037"/>
</filter>
<filter id="filter1_i_798_4037" x="6.58594" y="12.605" width="21.0669" height="15.3716" filterUnits="userSpaceOnUse" color-interpolation-filters="sRGB">
<feFlood flood-opacity="0" result="BackgroundImageFix"/>
<feBlend mode="normal" in="SourceGraphic" in2="BackgroundImageFix" result="shape"/>
<feColorMatrix in="SourceAlpha" type="matrix" values="0 0 0 0 0 0 0 0 0 0 0 0 0 0 0 0 0 0 127 0" result="hardAlpha"/>
<feOffset dx="1.5" dy="1.5"/>
<feGaussianBlur stdDeviation="0.75"/>
<feComposite in2="hardAlpha" operator="arithmetic" k2="-1" k3="1"/>
<feColorMatrix type="matrix" values="0 0 0 0 0 0 0 0 0 0 0 0 0 0 0 0 0 0 0.15 0"/>
<feBlend mode="normal" in2="shape" result="effect1_innerShadow_798_4037"/>
</filter>
</defs>
</svg>
