<svg width="57" height="45" viewBox="0 0 57 45" fill="none" xmlns="http://www.w3.org/2000/svg">
<path d="M12.299 1.3404C12.4177 0.905338 12.8128 0.603516 13.2638 0.603516H55.1908C55.8501 0.603516 56.329 1.23049 56.1555 1.86663L44.701 43.8666C44.5823 44.3017 44.1872 44.6035 43.7362 44.6035H1.80925C1.14988 44.6035 0.670994 43.9765 0.844487 43.3404L12.299 1.3404Z" fill="black"/>
<path d="M28.3711 13.8105C30.949 13.8105 31.2735 13.8218 32.291 13.8633C33.3051 13.9085 33.9955 14.071 34.5986 14.3047C35.2206 14.5497 35.7525 14.8736 36.2803 15.4014C36.8079 15.9291 37.1357 16.4573 37.377 17.083C37.6106 17.6898 37.7731 18.3796 37.8184 19.3896C37.8636 20.4037 37.875 20.7244 37.875 23.3066C37.875 25.889 37.8636 26.2096 37.8184 27.2236C37.7731 28.2377 37.6107 28.9281 37.377 29.5312C37.132 30.153 36.8078 30.6843 36.2803 31.2119C35.7525 31.7397 35.2244 32.0683 34.5986 32.3096C33.9917 32.5433 33.3013 32.7048 32.291 32.75C31.2773 32.7952 30.9566 32.8066 28.375 32.8066C25.7929 32.8066 25.4718 32.7952 24.458 32.75C23.4439 32.7048 22.7536 32.5433 22.1504 32.3096C21.5284 32.0645 20.9965 31.7397 20.4688 31.2119C19.9413 30.6843 19.6133 30.1567 19.3721 29.5312C19.1383 28.9243 18.9759 28.234 18.9307 27.2236C18.8854 26.2096 18.875 25.8852 18.875 23.3066C18.875 20.7282 18.8854 20.4039 18.9307 19.3936C18.9759 18.3797 19.1384 17.69 19.3721 17.0869C19.6171 16.465 19.9411 15.933 20.4688 15.4053C20.9965 14.8776 21.5247 14.5499 22.1504 14.3086C22.7536 14.0749 23.4438 13.9124 24.4541 13.8672C25.468 13.822 25.7927 13.8105 28.3711 13.8105ZM28.3711 18.4316C25.6795 18.4318 23.4932 20.6152 23.4932 23.3105C23.4934 26.0057 25.6759 28.1883 28.3711 28.1885C31.0664 28.1885 33.2498 26.0058 33.25 23.3105C33.25 20.6151 31.0665 18.4316 28.3711 18.4316ZM28.3711 20.1396C30.1203 20.1396 31.5381 21.5574 31.5381 23.3066C31.538 25.0557 30.1202 26.4727 28.3711 26.4727C26.6221 26.4725 25.2052 25.0557 25.2051 23.3066C25.2051 21.5575 26.622 20.1398 28.3711 20.1396ZM33.4424 17.0977C32.8136 17.0977 32.3037 17.6076 32.3037 18.2363C32.3039 18.865 32.8137 19.375 33.4424 19.375C34.0709 19.3748 34.5799 18.8648 34.5801 18.2363C34.5801 17.6077 34.071 17.0979 33.4424 17.0977Z" fill="white"/>
</svg>
