<svg width="57" height="45" viewBox="0 0 57 45" fill="none" xmlns="http://www.w3.org/2000/svg">
<path d="M12.299 1.3404C12.4177 0.905338 12.8128 0.603516 13.2638 0.603516H55.1908C55.8501 0.603516 56.329 1.23049 56.1555 1.86663L44.701 43.8666C44.5823 44.3017 44.1872 44.6035 43.7362 44.6035H1.80925C1.14988 44.6035 0.670994 43.9765 0.844487 43.3404L12.299 1.3404Z" fill="black"/>
<path d="M18.5498 32.3774L20.0259 26.9848C19.1151 25.4063 18.6364 23.6169 18.6373 21.7821C18.6399 16.0456 23.3081 11.3774 29.0437 11.3774C31.8271 11.3783 34.4398 12.4624 36.4051 14.4294C38.3694 16.3964 39.4509 19.0109 39.4501 21.7917C39.4474 27.5291 34.7793 32.1972 29.0437 32.1972C27.3024 32.1963 25.5866 31.7597 24.0667 30.9302L18.5498 32.3774ZM24.3222 29.0463C25.7887 29.9169 27.1887 30.4384 29.0402 30.4393C33.8072 30.4393 37.6904 26.5596 37.6931 21.7899C37.6948 17.0107 33.8299 13.1362 29.0472 13.1344C24.2767 13.1344 20.3961 17.0142 20.3943 21.7829C20.3934 23.7298 20.9639 25.1876 21.9221 26.7127L21.0479 29.9047L24.3222 29.0463ZM34.2858 24.2653C34.2211 24.1568 34.0478 24.0921 33.7871 23.9617C33.5272 23.8313 32.2488 23.2022 32.0099 23.1156C31.7719 23.0289 31.5987 22.9852 31.4246 23.2459C31.2513 23.5058 30.7526 24.0921 30.6012 24.2653C30.4498 24.4386 30.2976 24.4604 30.0377 24.3301C29.7778 24.1997 28.9396 23.9258 27.9464 23.0394C27.1738 22.3499 26.6514 21.4986 26.5001 21.2378C26.3487 20.9779 26.4843 20.8371 26.6138 20.7076C26.7311 20.5912 26.8737 20.4039 27.0041 20.2517C27.1362 20.1012 27.1791 19.9927 27.2666 19.8186C27.3532 19.6453 27.3103 19.4931 27.2447 19.3627C27.1791 19.2332 26.6593 17.9531 26.4432 17.4324C26.2314 16.9258 26.0171 16.9941 25.8578 16.9862L25.3591 16.9774C25.1858 16.9774 24.9041 17.0422 24.6661 17.3029C24.4281 17.5637 23.7561 18.1919 23.7561 19.4721C23.7561 20.7522 24.6879 21.9886 24.8174 22.1618C24.9478 22.3351 26.6506 24.9618 29.2589 26.0879C29.8793 26.3557 30.3641 26.5158 30.7412 26.6357C31.3642 26.8334 31.9312 26.8054 32.3792 26.7389C32.8788 26.6646 33.9174 26.1098 34.1344 25.5026C34.3514 24.8944 34.3514 24.3738 34.2858 24.2653Z" fill="white"/>
</svg>
