<svg width="57" height="45" viewBox="0 0 57 45" fill="none" xmlns="http://www.w3.org/2000/svg">
<path d="M12.299 1.3404C12.4177 0.905338 12.8128 0.603516 13.2638 0.603516H55.1908C55.8501 0.603516 56.329 1.23049 56.1555 1.86663L44.701 43.8666C44.5823 44.3017 44.1872 44.6035 43.7362 44.6035H1.80925C1.14988 44.6035 0.670994 43.9765 0.844487 43.3404L12.299 1.3404Z" fill="black"/>
<path d="M28.5 15.0635C28.5424 15.0635 35.2569 15.0649 36.9395 15.5254C37.8634 15.7741 38.5921 16.5028 38.8408 17.4268C39.3027 19.1148 39.2852 22.6328 39.2852 22.6328C39.2851 22.6713 39.2824 26.1416 38.8408 27.8203C38.5921 28.7442 37.8633 29.4729 36.9395 29.7217C35.2569 30.1645 28.5424 30.166 28.5 30.166C28.5 30.166 21.7668 30.166 20.0605 29.7041C19.1366 29.4554 18.4079 28.7267 18.1592 27.8027C17.715 26.1325 17.7148 22.6143 17.7148 22.6143C17.7149 22.5682 17.718 19.1035 18.1592 17.4268C18.4079 16.5028 19.1544 15.7566 20.0605 15.5078C21.749 15.0637 28.5 15.0635 28.5 15.0635ZM26.3496 25.8486L31.9639 22.6143L26.3496 19.3809V25.8486Z" fill="white"/>
</svg>
