<svg width="1099" height="358" viewBox="0 0 1099 358" fill="none" xmlns="http://www.w3.org/2000/svg">
<mask id="mask0_339_1069" style="mask-type:alpha" maskUnits="userSpaceOnUse" x="0" y="0" width="1099" height="358">
<path d="M747.646 355.514C747.25 356.758 746.094 357.604 744.787 357.604H3.49999C1.84313 357.604 0.5 356.26 0.5 354.604V3.60352C0.5 1.94666 1.84315 0.603516 3.5 0.603516H856.557C858.588 0.603516 860.032 2.57881 859.416 4.51378L747.646 355.514ZM1098.5 354.604C1098.5 356.26 1097.16 357.604 1095.5 357.604H787.852C785.821 357.604 784.377 355.628 784.993 353.693L896.762 2.69327C897.159 1.44866 898.315 0.603516 899.621 0.603516H1095.5C1097.16 0.603516 1098.5 1.94666 1098.5 3.60352V354.604Z" fill="#D9D9D9"/>
</mask>
<g mask="url(#mask0_339_1069)">
<rect x="-13.4736" y="-79.5979" width="1170.38" height="658.34" rx="5" fill="black"/>
</g>
</svg>
