<svg width="516" height="316" viewBox="0 0 516 316" fill="none" xmlns="http://www.w3.org/2000/svg">
<mask id="mask0_405_547" style="mask-type:alpha" maskUnits="userSpaceOnUse" x="0" y="0" width="516" height="316">
<path d="M103.615 308.596C102.441 312.964 98.4813 316 93.9583 316H10C4.47716 316 0 311.523 0 306V10C0 4.47716 4.47715 0 10 0H173.536C180.114 0 184.901 6.2431 183.193 12.5962L103.615 308.596ZM516 306C516 311.523 511.523 316 506 316H135.379C128.8 316 124.013 309.757 125.721 303.404L205.3 7.40373C206.474 3.03587 210.434 0 214.957 0H506C511.523 0 516 4.47715 516 10V306Z" fill="#D9D9D9"/>
</mask>
<g mask="url(#mask0_405_547)">
<rect x="-58" y="-18" width="935" height="526" fill="black"/>
</g>
</svg>
