<svg xmlns="http://www.w3.org/2000/svg" width="247" height="25" fill="none"><path fill="#000" fill-rule="evenodd" d="M.847 24.604a.267.267 0 0 1-.258-.336L6.847.801a.267.267 0 0 1 .258-.197H28.42c.175 0 .302.166.257.335l-4.124 15.467a.267.267 0 0 1-.258.198H8.196c-.12 0-.226.08-.257.197l-2.052 7.605a.267.267 0 0 1-.258.198H.847ZM22.01 6.274a.267.267 0 0 0-.258-.337H11.075c-.12 0-.226.08-.257.197L10.152 8.6l-.628 2.328a.267.267 0 0 0 .257.336l10.667.006c.12 0 .226-.08.258-.197l1.303-4.8ZM164.047 24.604a.266.266 0 0 1-.257-.336L170.047.801a.268.268 0 0 1 .258-.197h21.315c.175 0 .303.166.257.335l-4.124 15.467a.267.267 0 0 1-.258.198h-4.755a.267.267 0 0 0-.258.335l1.954 7.33a.266.266 0 0 1-.257.335h-4.782a.267.267 0 0 1-.258-.198l-2.052-7.605a.267.267 0 0 0-.258-.197h-5.432a.267.267 0 0 0-.258.197l-2.052 7.605a.267.267 0 0 1-.258.198h-4.782Zm21.162-18.33a.267.267 0 0 0-.258-.337h-10.676c-.12 0-.226.08-.257.197l-1.294 4.793a.267.267 0 0 0 .257.337l10.668.006c.12 0 .225-.08.257-.197l1.303-4.8Z" clip-rule="evenodd"/><path fill="#000" d="m115.647.801-6.258 23.467a.267.267 0 0 0 .258.335h4.782c.12 0 .226-.08.257-.197l2.053-7.605a.266.266 0 0 1 .257-.197h10.766c.12 0 .226-.082.257-.198l1.28-4.8a.266.266 0 0 0-.257-.336l-10.461-.006a.267.267 0 0 1-.257-.336l.628-2.328.665-2.466a.267.267 0 0 1 .258-.197h16.064a.267.267 0 0 0 .258-.198l1.28-4.8a.267.267 0 0 0-.258-.335h-21.314a.267.267 0 0 0-.258.197Z"/><path fill="#000" fill-rule="evenodd" d="M55.247 24.604a.267.267 0 0 1-.258-.336L61.247.801a.267.267 0 0 1 .258-.197H82.82c.175 0 .302.166.257.335L78.9 16.604l-2.08 7.802a.267.267 0 0 1-.258.198H71.78a.267.267 0 0 1-.257-.336l1.954-7.33a.267.267 0 0 0-.258-.334H62.596c-.12 0-.226.08-.257.197l-2.053 7.605a.267.267 0 0 1-.257.198h-4.782Zm21.162-18.33a.267.267 0 0 0-.258-.337H65.475c-.12 0-.226.08-.257.197L64.552 8.6l-.628 2.328a.267.267 0 0 0 .257.336l10.667.006c.12 0 .226-.08.258-.197l1.303-4.8ZM218.447 24.604a.266.266 0 0 1-.257-.336L224.447.801a.267.267 0 0 1 .258-.197h21.315c.175 0 .302.166.257.335L242.1 16.604l-2.08 7.802a.268.268 0 0 1-.258.198h-4.781a.267.267 0 0 1-.258-.336l1.954-7.33a.266.266 0 0 0-.257-.334h-10.623a.267.267 0 0 0-.258.197l-2.052 7.605a.267.267 0 0 1-.258.198h-4.782Zm21.162-18.33a.267.267 0 0 0-.258-.337h-10.676c-.12 0-.226.08-.257.197l-.666 2.466-.628 2.328a.267.267 0 0 0 .257.336l10.667.006c.121 0 .226-.08.258-.197l1.303-4.8ZM143.105.604a.267.267 0 0 0-.258.197l-6.258 23.467a.267.267 0 0 0 .258.335H158.162a.266.266 0 0 0 .257-.197l2.081-7.802L164.677.939a.266.266 0 0 0-.257-.335h-21.315Zm14.904 5.67a.267.267 0 0 0-.258-.337h-10.676c-.12 0-.226.08-.257.197l-.666 2.466-.719 2.663-2.072 7.671a.267.267 0 0 0 .257.336h10.636c.12 0 .225-.08.257-.196l2.141-7.804 1.357-4.997Z" clip-rule="evenodd"/><path fill="#000" d="M34.047.801 27.79 24.268a.267.267 0 0 0 .257.335H49.23c.12 0 .226-.08.257-.195l1.32-4.8a.267.267 0 0 0-.257-.338H34.804a.267.267 0 0 1-.257-.336L39.409.94a.267.267 0 0 0-.257-.336h-4.847a.267.267 0 0 0-.258.197ZM197.338.8l-6.347 23.467a.267.267 0 0 0 .257.337h4.851c.12 0 .226-.081.257-.197l1.396-5.137 2.691-10.388a.267.267 0 0 1 .496-.055l2.87 5.603c.08.155.285.193.415.077l6.394-5.707c.197-.177.504.012.435.268l-4.099 15.2a.266.266 0 0 0 .257.335h5.125c.12 0 .226-.08.257-.195L219.073.94a.267.267 0 0 0-.257-.337h-5.372a.266.266 0 0 0-.16.053l-6.827 5.113a.268.268 0 0 1-.381-.064L202.682.72a.267.267 0 0 0-.221-.116h-4.865a.267.267 0 0 0-.258.197ZM96.264.604h-7.56c-.12 0-.226.08-.258.195l-1.32 4.8a.267.267 0 0 0 .257.338h7.104c.176 0 .303.166.258.336l-4.822 17.995a.267.267 0 0 0 .258.335h4.945c.12 0 .226-.08.257-.197l4.873-18.271a.266.266 0 0 1 .257-.198h8.22a.266.266 0 0 0 .257-.198l1.287-4.8a.267.267 0 0 0-.258-.335H96.264Z"/><path fill="#072FC4" d="M41.124 13.6 44.58.8a.267.267 0 0 1 .257-.196h10.627c.176 0 .304.166.258.336l-3.456 12.8a.267.267 0 0 1-.258.197H41.381a.267.267 0 0 1-.257-.336Z"/></svg>