<svg width="48" height="57" viewBox="0 0 48 57" fill="none" xmlns="http://www.w3.org/2000/svg">
<path d="M47.4062 45.5098C47.4062 46.6143 46.5108 47.5098 45.4062 47.5098H33.7265C33.1602 47.5098 32.6204 47.7498 32.2412 48.1704L25.4267 55.727C24.6324 56.6078 23.2504 56.6078 22.4561 55.727L15.6416 48.1704C15.2624 47.7498 14.7226 47.5098 14.1564 47.5098H2.5C1.39543 47.5098 0.5 46.6143 0.5 45.5098V2.60352C0.5 1.49895 1.39543 0.603516 2.5 0.603516H45.4062C46.5108 0.603516 47.4062 1.49895 47.4062 2.60352V45.5098Z" fill="white"/>
<path d="M15.7605 10.2165L8.42226 37.7351C8.36932 37.9336 8.51895 38.1284 8.72441 38.1284H33.565C33.7058 38.1284 33.8292 38.0343 33.8665 37.8986L35.4145 32.2698C35.4692 32.0707 35.3194 31.8742 35.1129 31.8742H16.6478C16.4419 31.8742 16.2922 31.6786 16.3459 31.4799L22.0481 10.3787C22.1018 10.1799 21.9521 9.98438 21.7462 9.98438H16.0627C15.921 9.98438 15.7971 10.0796 15.7605 10.2165Z" fill="black"/>
<path d="M24.0596 25.2257L28.1123 10.2156C28.1491 10.0791 28.2729 9.98438 28.4142 9.98438H40.8762C41.0821 9.98438 41.2318 10.1799 41.1781 10.3786L37.1254 25.3887C37.0885 25.5252 36.9648 25.6199 36.8235 25.6199H24.3615C24.1556 25.6199 24.0059 25.4245 24.0596 25.2257Z" fill="#072FC4"/>
</svg>
