<?xml version="1.0" encoding="utf-8"?><svg viewBox="0 0 1721 760" xmlns="http://www.w3.org/2000/svg" xmlns:xlink="http://www.w3.org/1999/xlink"><style>:root>svg{display:none}:root>svg:target{display:block}</style><svg viewBox="0 0 607 298" id="article-mask" xmlns="http://www.w3.org/2000/svg"><mask id="aa" maskUnits="userSpaceOnUse" x="-90" y="-231" width="697" height="529"><path d="m-89.475 294.664 141.458-523.96a2.172 2.172 0 0 1 2.097-1.606h550.46a2.172 2.172 0 0 1 2.098 2.738l-141.459 523.96a2.171 2.171 0 0 1-2.097 1.606h-550.46a2.172 2.172 0 0 1-2.097-2.738Z"/></mask><g mask="url(#aa)"><path d="M-66.941-47.043h629.544v377.842H-66.941z"/></g></svg><svg viewBox="0 0 1099 358" id="complex-mask" xmlns="http://www.w3.org/2000/svg"><mask id="ca" maskUnits="userSpaceOnUse" x="0" y="0" width="1099" height="358"><path d="M747.646 355.514a3 3 0 0 1-2.859 2.09H3.5a3 3 0 0 1-3-3v-351a3 3 0 0 1 3-3h853.057a3 3 0 0 1 2.859 3.91l-111.77 351Zm350.854-.91c0 1.656-1.34 3-3 3H787.852a3 3 0 0 1-2.859-3.911l111.769-351a3.001 3.001 0 0 1 2.859-2.09H1095.5c1.66 0 3 1.344 3 3v351.001Z"/></mask><g mask="url(#ca)"><rect x="-13.474" y="-79.598" width="1170.38" height="658.34" rx="5"/></g></svg><svg viewBox="0 0 516 316" id="complex-mask-mob" xmlns="http://www.w3.org/2000/svg"><mask id="ba" maskUnits="userSpaceOnUse" x="0" y="0" width="516" height="316"><path d="M103.615 308.596A10 10 0 0 1 93.958 316H10c-5.523 0-10-4.477-10-10V10C0 4.477 4.477 0 10 0h163.536c6.578 0 11.365 6.243 9.657 12.596l-79.578 296ZM516 306c0 5.523-4.477 10-10 10H135.379c-6.579 0-11.366-6.243-9.658-12.596l79.579-296A10 10 0 0 1 214.957 0H506c5.523 0 10 4.477 10 10v296Z"/></mask><g mask="url(#ba)"><path d="M-58-18h935v526H-58z"/></g></svg><svg viewBox="0 0 502.664 502.664" xml:space="preserve" id="icon" xmlns="http://www.w3.org/2000/svg"><path d="M153.821 358.226 0 274.337v-46.463l153.821-83.414v54.574L46.636 250.523l107.185 53.431v54.272zm26.273 29.358L282.103 115.08h32.227L212.084 387.584h-31.99zm168.749-29.358v-54.272l107.164-52.999-107.164-52.59v-53.927l153.821 83.522v46.183l-153.821 84.083z"/></svg><svg viewBox="0 0 247 25" id="logo" xmlns="http://www.w3.org/2000/svg"><path fill-rule="evenodd" d="M.847 24.604a.267.267 0 0 1-.258-.336L6.847.801a.267.267 0 0 1 .258-.197H28.42c.175 0 .302.166.257.335l-4.124 15.467a.267.267 0 0 1-.258.198H8.196c-.12 0-.226.08-.257.197l-2.052 7.605a.267.267 0 0 1-.258.198H.847ZM22.01 6.274a.267.267 0 0 0-.258-.337H11.075c-.12 0-.226.08-.257.197L10.152 8.6l-.628 2.328a.267.267 0 0 0 .257.336l10.667.006c.12 0 .226-.08.258-.197l1.303-4.8Zm142.037 18.33a.266.266 0 0 1-.257-.336L170.047.801a.268.268 0 0 1 .258-.197h21.315c.175 0 .303.166.257.335l-4.124 15.467a.267.267 0 0 1-.258.198h-4.755a.267.267 0 0 0-.258.335l1.954 7.33a.266.266 0 0 1-.257.335h-4.782a.267.267 0 0 1-.258-.198l-2.052-7.605a.267.267 0 0 0-.258-.197h-5.432a.267.267 0 0 0-.258.197l-2.052 7.605a.267.267 0 0 1-.258.198h-4.782Zm21.162-18.33a.267.267 0 0 0-.258-.337h-10.676c-.12 0-.226.08-.257.197l-1.294 4.793a.267.267 0 0 0 .257.337l10.668.006c.12 0 .225-.08.257-.197l1.303-4.8Z" clip-rule="evenodd"/><path d="m115.647.801-6.258 23.467a.267.267 0 0 0 .258.335h4.782c.12 0 .226-.08.257-.197l2.053-7.605a.266.266 0 0 1 .257-.197h10.766c.12 0 .226-.082.257-.198l1.28-4.8a.266.266 0 0 0-.257-.336l-10.461-.006a.267.267 0 0 1-.257-.336l.628-2.328.665-2.466a.267.267 0 0 1 .258-.197h16.064a.267.267 0 0 0 .258-.198l1.28-4.8a.267.267 0 0 0-.258-.335h-21.314a.267.267 0 0 0-.258.197Z"/><path fill-rule="evenodd" d="M55.247 24.604a.267.267 0 0 1-.258-.336L61.247.801a.267.267 0 0 1 .258-.197H82.82c.175 0 .302.166.257.335L78.9 16.604l-2.08 7.802a.267.267 0 0 1-.258.198H71.78a.267.267 0 0 1-.257-.336l1.954-7.33a.267.267 0 0 0-.258-.334H62.596c-.12 0-.226.08-.257.197l-2.053 7.605a.267.267 0 0 1-.257.198h-4.782Zm21.162-18.33a.267.267 0 0 0-.258-.337H65.475c-.12 0-.226.08-.257.197L64.552 8.6l-.628 2.328a.267.267 0 0 0 .257.336l10.667.006c.12 0 .226-.08.258-.197l1.303-4.8Zm142.038 18.33a.266.266 0 0 1-.257-.336L224.447.801a.267.267 0 0 1 .258-.197h21.315c.175 0 .302.166.257.335L242.1 16.604l-2.08 7.802a.268.268 0 0 1-.258.198h-4.781a.267.267 0 0 1-.258-.336l1.954-7.33a.266.266 0 0 0-.257-.334h-10.623a.267.267 0 0 0-.258.197l-2.052 7.605a.267.267 0 0 1-.258.198h-4.782Zm21.162-18.33a.267.267 0 0 0-.258-.337h-10.676c-.12 0-.226.08-.257.197l-.666 2.466-.628 2.328a.267.267 0 0 0 .257.336l10.667.006c.121 0 .226-.08.258-.197l1.303-4.8ZM143.105.604a.267.267 0 0 0-.258.197l-6.258 23.467a.267.267 0 0 0 .258.335h21.315a.266.266 0 0 0 .257-.197l2.081-7.802L164.677.939a.266.266 0 0 0-.257-.335h-21.315Zm14.904 5.67a.267.267 0 0 0-.258-.337h-10.676c-.12 0-.226.08-.257.197l-.666 2.466-.719 2.663-2.072 7.671a.267.267 0 0 0 .257.336h10.636c.12 0 .225-.08.257-.196l2.141-7.804 1.357-4.997Z" clip-rule="evenodd"/><path d="M34.047.801 27.79 24.268a.267.267 0 0 0 .257.335H49.23c.12 0 .226-.08.257-.195l1.32-4.8a.267.267 0 0 0-.257-.338H34.804a.267.267 0 0 1-.257-.336L39.409.94a.267.267 0 0 0-.257-.336h-4.847a.267.267 0 0 0-.258.197ZM197.338.8l-6.347 23.467a.267.267 0 0 0 .257.337h4.851c.12 0 .226-.081.257-.197l1.396-5.137 2.691-10.388a.267.267 0 0 1 .496-.055l2.87 5.603c.08.155.285.193.415.077l6.394-5.707c.197-.177.504.012.435.268l-4.099 15.2a.266.266 0 0 0 .257.335h5.125c.12 0 .226-.08.257-.195L219.073.94a.267.267 0 0 0-.257-.337h-5.372a.266.266 0 0 0-.16.053l-6.827 5.113a.268.268 0 0 1-.381-.064L202.682.72a.267.267 0 0 0-.221-.116h-4.865a.267.267 0 0 0-.258.197ZM96.264.604h-7.56c-.12 0-.226.08-.258.195l-1.32 4.8a.267.267 0 0 0 .257.338h7.104c.176 0 .303.166.258.336l-4.822 17.995a.267.267 0 0 0 .258.335h4.945c.12 0 .226-.08.257-.197l4.873-18.271a.266.266 0 0 1 .257-.198h8.22a.266.266 0 0 0 .257-.198l1.287-4.8a.267.267 0 0 0-.258-.335H96.264Z"/><path d="M41.124 13.6 44.58.8a.267.267 0 0 1 .257-.196h10.627c.176 0 .304.166.258.336l-3.456 12.8a.267.267 0 0 1-.258.197H41.381a.267.267 0 0 1-.257-.336Z"/></svg><svg viewBox="0 0 43 36" id="logo-mob" xmlns="http://www.w3.org/2000/svg"><path d="m9.52.297-9.386 35.2A.4.4 0 0 0 .521 36h31.774a.4.4 0 0 0 .386-.294l1.98-7.2a.4.4 0 0 0-.386-.506h-23.62a.4.4 0 0 1-.385-.504L17.564.504A.4.4 0 0 0 17.177 0h-7.27a.4.4 0 0 0-.386.297Z"/><path d="M20.136 19.496 25.32.296A.4.4 0 0 1 25.706 0h15.94a.4.4 0 0 1 .387.504l-5.184 19.2a.4.4 0 0 1-.386.296h-15.94a.4.4 0 0 1-.387-.504Z"/></svg><svg viewBox="0 0 48 57" id="placemark" xmlns="http://www.w3.org/2000/svg"><path d="M47.406 45.51a2 2 0 0 1-2 2h-11.68a2 2 0 0 0-1.485.66l-6.814 7.557a2 2 0 0 1-2.97 0l-6.815-7.557a2 2 0 0 0-1.486-.66H2.5a2 2 0 0 1-2-2V2.604a2 2 0 0 1 2-2h42.906a2 2 0 0 1 2 2V45.51Z"/><path d="m15.76 10.216-7.338 27.52a.313.313 0 0 0 .302.392h24.841c.14 0 .264-.094.302-.23l1.547-5.628a.313.313 0 0 0-.301-.396H16.648a.313.313 0 0 1-.302-.394l5.702-21.101a.313.313 0 0 0-.302-.395h-5.683a.313.313 0 0 0-.302.232Z"/><path d="m24.06 25.226 4.052-15.01a.313.313 0 0 1 .302-.232h12.462c.206 0 .356.196.302.395l-4.053 15.01a.313.313 0 0 1-.301.23H24.362a.313.313 0 0 1-.302-.393Z"/></svg><svg viewBox="0 0 47 54" id="play" xmlns="http://www.w3.org/2000/svg"><path d="M46.18 27.32.43 53.734V.906L46.18 27.32Z"/></svg><svg viewBox="0 0 794 760" id="steps-content" xmlns="http://www.w3.org/2000/svg"><path d="M0 5a5 5 0 0 1 5-5h783.288c3.347 0 5.749 3.224 4.791 6.431l-224.013 750a5 5 0 0 1-4.791 3.569H5a5 5 0 0 1-5-5V5Z"/></svg><svg viewBox="0 0 480 290" id="steps-content-mob" xmlns="http://www.w3.org/2000/svg"><path d="M0 5a5 5 0 0 1 5-5h470a5 5 0 0 1 5 5v109.303a4.998 4.998 0 0 1-3.535 4.78l-470 144.019C3.25 264.087 0 261.683 0 258.322V5Z"/></svg><svg viewBox="0 0 1314 760" id="steps-video" xmlns="http://www.w3.org/2000/svg"><mask id="la" maskUnits="userSpaceOnUse" x="1" y="0" width="1331" height="760"><path d="M222.942 3.585A5 5 0 0 1 227.738 0H1327a5 5 0 0 1 5 5v749.997a5 5 0 0 1-5 5L6.684 759.078c-3.339-.002-5.737-3.213-4.792-6.415L222.942 3.585Z"/></mask><g mask="url(#la)"><path d="M-20-35.22h1929v1158.54H-20V-35.22Z"/></g></svg><svg viewBox="0 0 480 700" id="steps-video-mob" xmlns="http://www.w3.org/2000/svg"><mask id="ka" maskUnits="userSpaceOnUse" x="0" y="2" width="480" height="698"><path d="M0 150.382a5 5 0 0 1 3.543-4.783l470-143.133C476.756 1.488 480 3.891 480 7.25V695a5 5 0 0 1-5 5H5a5 5 0 0 1-5-5V150.382Z"/></mask><g mask="url(#ka)"><path d="M-11-90.484h632V728.8H-11V-90.484Z"/></g></svg><svg viewBox="0 0 722 316" id="stock" xmlns="http://www.w3.org/2000/svg"><mask id="pa" maskUnits="userSpaceOnUse" x="-219" y="0" width="939" height="713"><path d="m719.769 706.697-189.796-703A4.999 4.999 0 0 0 525.146 0h-738.617c-3.291 0-5.685 3.125-4.827 6.303l189.796 703A5 5 0 0 0-23.675 713h738.617c3.291 0 5.685-3.126 4.827-6.303Z"/></mask><g mask="url(#pa)"><rect width="1601.07" height="922.083" rx="10" transform="matrix(-1 0 0 1 926.772 -317.227)"/></g></svg><svg viewBox="0 0 705 319" id="stock-avoid" xmlns="http://www.w3.org/2000/svg"><mask id="na" maskUnits="userSpaceOnUse" x="-234" y="0" width="936" height="713"><path d="m701.237 700.393-187.096-693A9.999 9.999 0 0 0 504.487 0h-728.259c-6.583 0-11.37 6.25-9.654 12.607L-46.33 705.606A10 10 0 0 0-36.676 713h728.259c6.583 0 11.37-6.251 9.654-12.607Z"/></mask><g mask="url(#na)"><rect width="1601.07" height="922.083" rx="10" transform="matrix(-1 0 0 1 926.771 -284.227)"/></g></svg><svg viewBox="0 0 507 249" id="stock-avoid-mob" xmlns="http://www.w3.org/2000/svg"><mask id="ma" maskUnits="userSpaceOnUse" x="-90" y="0" width="594" height="454"><path d="m503.074 441.394-117.171-434A10 10 0 0 0 376.249 0H-79.942c-6.583 0-11.37 6.25-9.655 12.607L27.575 446.606A10 10 0 0 0 37.229 454H493.42c6.583 0 11.37-6.251 9.654-12.606Z"/></mask><g mask="url(#ma)"><rect width="457" height="249" rx="6.293" transform="matrix(-1 0 0 1 457 0)"/></g></svg><svg viewBox="0 0 454 254" id="stock-mob" xmlns="http://www.w3.org/2000/svg"><mask id="oa" maskUnits="userSpaceOnUse" x="-143" y="0" width="594" height="454"><path d="m450.074 441.394-117.171-434A10 10 0 0 0 323.249 0h-456.191c-6.583 0-11.37 6.25-9.655 12.607l117.172 433.999A10 10 0 0 0-15.771 454H440.42c6.583 0 11.37-6.251 9.654-12.606Z"/></mask><g mask="url(#oa)"><rect width="1019.48" height="587.133" rx="10" transform="matrix(-1 0 0 1 528.805 -120.49)"/></g></svg><svg viewBox="0 0 1721 758" id="tech-mask" xmlns="http://www.w3.org/2000/svg"><mask id="qa" maskUnits="userSpaceOnUse" x="870" y="0" width="851" height="758"><path d="M1720.5 5.227v747.445a4.779 4.779 0 0 1-4.78 4.778H874.805c-3.166 0-5.456-3.023-4.6-6.07L1080.17 3.935a4.78 4.78 0 0 1 4.6-3.485h630.95c2.64 0 4.78 2.139 4.78 4.777Z"/></mask><g mask="url(#qa)"><path d="M868.501-244.549h852.184v1037.77H868.501z"/></g><mask id="qb" maskUnits="userSpaceOnUse" x="0" y="0" width="1042" height="758"><path d="M.5 752.672V5.227A4.778 4.778 0 0 1 5.278.45H1037.2c3.16 0 5.45 3.022 4.6 6.07L831.834 753.964a4.779 4.779 0 0 1-4.6 3.486H5.278A4.778 4.778 0 0 1 .5 752.672Z"/></mask><g mask="url(#qb)"><path d="M1275.5-199.396H.5v957h1275z"/></g></svg></svg>