<svg width="57" height="45" viewBox="0 0 57 45" fill="none" xmlns="http://www.w3.org/2000/svg">
<path d="M12.299 1.3404C12.4177 0.905338 12.8128 0.603516 13.2638 0.603516H55.1908C55.8501 0.603516 56.329 1.23049 56.1555 1.86663L44.701 43.8666C44.5823 44.3017 44.1872 44.6035 43.7362 44.6035H1.80925C1.14988 44.6035 0.670994 43.9765 0.844487 43.3404L12.299 1.3404Z" fill="black"/>
<path fill-rule="evenodd" clip-rule="evenodd" d="M18.6533 21.4326C24.1598 19.0336 27.8316 17.4519 29.6688 16.6878C34.9144 14.5059 36.0044 14.1269 36.7149 14.1144C36.8711 14.1116 37.2205 14.1504 37.4468 14.334C37.6379 14.4891 37.6905 14.6985 37.7156 14.8455C37.7408 14.9925 37.7721 15.3274 37.7472 15.5891C37.463 18.5759 36.233 25.824 35.6072 29.1693C35.3424 30.5848 34.8211 31.0594 34.3164 31.1058C33.2194 31.2068 32.3865 30.3809 31.3241 29.6845C29.6616 28.5947 28.7225 27.9163 27.1088 26.8529C25.2439 25.624 26.4528 24.9485 27.5156 23.8446C27.7937 23.5557 32.6267 19.1597 32.7203 18.7609C32.732 18.7111 32.7428 18.5252 32.6324 18.427C32.5219 18.3288 32.3589 18.3624 32.2413 18.3891C32.0746 18.4269 29.4188 20.1823 24.2739 23.6553C23.5201 24.1729 22.8373 24.4251 22.2255 24.4119C21.5511 24.3973 20.2538 24.0306 19.2893 23.7171C18.1064 23.3326 17.1663 23.1293 17.2481 22.4762C17.2908 22.1361 17.7592 21.7882 18.6533 21.4326Z" fill="white"/>
</svg>
