<svg width="57" height="45" viewBox="0 0 57 45" fill="none" xmlns="http://www.w3.org/2000/svg">
<path d="M12.299 1.3404C12.4177 0.905338 12.8128 0.603516 13.2638 0.603516H55.1908C55.8501 0.603516 56.329 1.23049 56.1555 1.86663L44.701 43.8666C44.5823 44.3017 44.1872 44.6035 43.7362 44.6035H1.80925C1.14988 44.6035 0.670994 43.9765 0.844487 43.3404L12.299 1.3404Z" fill="black"/>
<path d="M29.6486 28.8271C22.5305 28.8271 18.4704 23.9473 18.3013 15.8271H21.8668C21.984 21.7871 24.6125 24.3116 26.6946 24.8321V15.8271H30.0521V20.9672C32.1081 20.746 34.268 18.4037 34.9968 15.8271H38.3542C37.7947 19.0023 35.4523 21.3446 33.7867 22.3076C35.4523 23.0884 38.1201 25.1314 39.1351 28.8271H35.4393C34.6455 26.3547 32.6677 24.4418 30.0521 24.1815V28.8271H29.6486Z" fill="white"/>
</svg>
